<svg width="44" height="62" viewBox="0 0 44 62" fill="none" xmlns="http://www.w3.org/2000/svg">
<path d="M36 22.6402C36 25.4871 35.1789 28.27 33.6406 30.6371C32.1022 33.0042 29.9157 34.8491 27.3576 35.9385C24.7994 37.028 21.9845 37.313 19.2687 36.7576C16.553 36.2022 14.0584 34.8313 12.1005 32.8183C10.1426 30.8053 8.80919 28.2405 8.269 25.4484C7.72881 22.6562 8.00605 19.7621 9.06568 17.1319C10.1253 14.5017 11.9197 12.2537 14.222 10.6721C16.5243 9.09046 19.2311 8.24627 22 8.24627C25.713 8.24627 29.274 9.76277 31.8995 12.4622C34.525 15.1616 36 18.8227 36 22.6402ZM44 22.6402C44.0004 25.9721 43.2833 29.2627 41.9001 32.2758C40.5169 35.2889 38.502 37.9497 36 40.0672V59.6533C36 60.1987 35.7893 60.7217 35.4142 61.1073C35.0391 61.493 34.5304 61.7096 34 61.7096C33.6897 61.7028 33.3838 61.6329 33.1 61.504L22 55.7721L10.9 61.504C10.5935 61.6596 10.2533 61.7319 9.91196 61.7139C9.57059 61.6959 9.23939 61.5882 8.95 61.4012C8.65825 61.2191 8.41739 60.9623 8.2509 60.656C8.0844 60.3497 7.99796 60.0042 7.99999 59.6533V40.0672C5.13983 37.6413 2.92241 34.5115 1.55373 30.9686C0.185052 27.4257 -0.290487 23.5846 0.171291 19.8021C0.633069 16.0196 2.01718 12.4185 4.19505 9.33325C6.37292 6.24801 9.27389 3.77875 12.6285 2.15485C15.9831 0.530957 19.6824 -0.194892 23.3829 0.0447356C27.0834 0.284363 30.6649 1.48169 33.7948 3.5255C36.9247 5.5693 39.5014 8.39327 41.2856 11.7351C43.0697 15.0769 44.0035 18.8281 44 22.6402ZM40 22.6402C40 18.98 38.9443 15.4019 36.9664 12.3586C34.9886 9.31517 32.1774 6.94314 28.8883 5.54243C25.5992 4.14171 21.98 3.77522 18.4884 4.4893C14.9967 5.20338 11.7894 6.96596 9.27207 9.55414C6.75473 12.1423 5.04039 15.4399 4.34586 19.0298C3.65133 22.6197 4.00779 26.3408 5.37016 29.7224C6.73254 33.104 9.03965 35.9943 11.9997 38.0279C14.9598 40.0614 18.4399 41.1468 22 41.1468C26.7719 41.14 31.3464 39.188 34.7206 35.7188C38.0948 32.2497 39.9934 27.5464 40 22.6402Z" fill="#3D55A5"/>
</svg>
