<svg width="39" height="27" viewBox="0 0 39 27" fill="none" xmlns="http://www.w3.org/2000/svg">
<path d="M33.15 9.64286H32.175L25.5462 1.44763C25.1807 0.995977 24.7173 0.631371 24.1901 0.380792C23.6629 0.130212 23.0855 7.23272e-05 22.5006 0H9.46542C7.87069 0 6.43683 0.960067 5.84452 2.42458L2.925 9.77906C1.24556 10.2094 0 11.7046 0 13.5V20.25C0 20.7828 0.436312 21.2143 0.975 21.2143H3.9C3.9 24.4097 6.51909 27 9.75 27C12.9809 27 15.6 24.4097 15.6 21.2143H23.4C23.4 24.4097 26.0191 27 29.25 27C32.4809 27 35.1 24.4097 35.1 21.2143H38.025C38.5637 21.2143 39 20.7828 39 20.25V15.4286C39 12.2332 36.3809 9.64286 33.15 9.64286ZM9.75 24.1071C8.13698 24.1071 6.825 22.8096 6.825 21.2143C6.825 19.619 8.13698 18.3214 9.75 18.3214C11.363 18.3214 12.675 19.619 12.675 21.2143C12.675 22.8096 11.363 24.1071 9.75 24.1071ZM14.1375 9.64286H7.12542L9.46542 3.85714H14.1375V9.64286ZM17.0625 9.64286V3.85714H22.5006L27.1806 9.64286H17.0625ZM29.25 24.1071C27.637 24.1071 26.325 22.8096 26.325 21.2143C26.325 19.619 27.637 18.3214 29.25 18.3214C30.863 18.3214 32.175 19.619 32.175 21.2143C32.175 22.8096 30.863 24.1071 29.25 24.1071Z" fill="#FDF8F2"/>
</svg>
