<svg width="38" height="38" viewBox="0 0 38 38" fill="none" xmlns="http://www.w3.org/2000/svg">
<path d="M37.3185 29.231C36.5727 28.2084 35.531 27.6909 34.2265 27.6909C33.9276 27.6909 33.6498 27.7185 33.3932 27.746C35.2592 23.9586 35.2804 19.3016 31.8653 16.3653C30.6544 15.3274 28.891 14.7762 27.8795 13.5393C26.8347 12.2625 26.5962 10.2601 25.491 8.90065C24.4614 7.63613 23.0935 6.75739 21.5747 6.21545C18.7394 5.202 15.3182 5.41326 12.6127 6.85843C12.3651 6.6043 12.1296 6.33793 11.9062 6.05624L11.7341 5.84191C11.6525 5.74087 11.5499 5.6184 11.5106 5.55411L11.5046 5.49287C11.4925 5.31528 11.4955 5.09483 11.4985 4.86214C11.5046 3.7354 11.5197 1.64112 9.61737 0.499073C9.07624 0.173647 8.45896 0.00130467 7.82981 0C6.37742 0 4.94314 0.933849 4.17618 2.38208C3.84101 3.01281 3.65984 3.09548 3.17974 3.18427C1.94777 3.41085 0.893954 4.28958 0.356477 5.53573C-0.187038 6.79413 -0.105511 8.1995 0.576903 9.29256C1.79377 11.2399 3.71721 11.2399 4.3483 11.2399C4.5657 11.2399 4.78613 11.2307 5.00655 11.2215C5.17867 11.2154 5.3538 11.2062 5.52591 11.2062C5.96676 11.2062 6.09358 11.2613 6.15397 11.3042C6.29287 11.4052 6.45291 11.6257 6.6371 11.8798C6.71863 11.9961 6.81223 12.1186 6.91188 12.2472C5.93657 13.8302 5.29945 15.5937 5.21792 17.4523C5.04581 21.3438 6.88772 25.2905 10.5715 26.7724C12.7154 27.6358 13.896 27.4245 14.6962 29.874C15.0284 30.8905 15.587 31.8642 16.4476 32.5224C19.5033 34.8494 23.945 34.7729 27.6047 33.1379L27.6772 33.2175L27.8221 33.3706C27.8433 33.5359 27.8523 33.689 27.8614 33.8451C27.9278 34.8525 28.0486 36.7324 29.8724 37.651C30.3344 37.8837 30.8205 38 31.3248 38C32.7319 38 34.1058 37.0263 34.7429 35.5781C34.9512 35.1097 35.0237 35.0882 35.3408 35.0056C36.461 34.7116 37.3729 33.8329 37.7805 32.6572C38.1912 31.4722 38.0191 30.1893 37.3185 29.231V29.231ZM12.8241 11.9226C12.4044 12.4554 11.6616 13.0739 10.949 13.0739C10.7074 13.0739 10.4719 13.0035 10.2515 12.8351C9.68682 12.4095 9.02555 11.8216 8.5696 11.2827C8.39145 11.0715 8.23745 10.851 8.07742 10.6336C7.84189 10.3091 7.59731 9.99372 7.25308 9.74571C6.72769 9.36298 6.12982 9.2895 5.52289 9.2895C5.13035 9.2895 4.73178 9.32012 4.34528 9.32012C3.51792 9.32012 2.74191 9.17621 2.17423 8.26686C1.44653 7.10031 2.20443 5.31528 3.51792 5.0734C4.65629 4.86214 5.28133 4.34776 5.83994 3.29144C6.23852 2.54436 7.01454 1.91975 7.82679 1.91975C8.10157 1.91975 8.37937 1.99017 8.65113 2.15245C9.86498 2.88115 9.54189 4.42124 9.61436 5.61534C9.66267 6.39916 9.96764 6.67472 10.4326 7.26259C10.6108 7.4861 10.798 7.69124 10.9852 7.89638C11.3294 8.27605 11.6827 8.63734 12.0783 8.9772C13.0264 9.80082 13.7722 10.7224 12.8241 11.9226V11.9226ZM34.8606 33.1532C33.9125 33.4012 33.4173 33.8758 33.0097 34.7974C32.7077 35.4863 32.0434 36.0833 31.3187 36.0833C31.1194 36.0833 30.9141 36.0374 30.7088 35.9363C29.6429 35.3975 29.8211 34.0778 29.6882 33.0766C29.6338 32.6755 29.504 32.4398 29.3168 32.2101C30.4129 31.5151 31.3852 30.6731 32.1612 29.7056C32.2971 29.724 32.436 29.7393 32.5749 29.7393C33.1244 29.7393 33.6921 29.6107 34.2265 29.6107C34.8063 29.6107 35.3468 29.7576 35.7997 30.3761C36.4852 31.313 35.9537 32.8654 34.8606 33.1532V33.1532Z" fill="#FDF8F2"/>
</svg>
