<?xml version="1.0" encoding="UTF-8"?><svg id="a" xmlns="http://www.w3.org/2000/svg" viewBox="0 0 25 25"><defs><style>.c{fill:#3d55a4;}</style></defs><g id="b"><path class="c" d="M19.24,22.95h-4.41c-.32-.27-.38-.64-.38-1.03,0-1.01,0-2.01,0-3.02,0-2.45-.04-2.49-2.52-2.42-.96,.03-1.28,.33-1.29,1.28-.01,1.36,0,2.72,0,4.08,0,.42-.03,.82-.38,1.12H5.85c-1.2-.52-1.65-1.49-1.65-2.75,0-1.55-.02-3.1,0-4.65,.01-.62-.14-.96-.8-1.18-1.44-.47-1.9-2.14-.85-3.22,2.82-2.91,5.69-5.76,8.58-8.59,.87-.85,2-.83,2.86,.03,3.02,3.02,6.12,5.94,9,9.09,.47,.68,.4,1.44,.23,1.75-.33,.6-.94,.83-1.62,.99-.57,.13-.72,.45-.72,.99,.02,1.6,0,3.2,0,4.8,0,1.25-.45,2.22-1.65,2.74Z"/></g></svg>