<svg width="20" height="14" viewBox="0 0 20 14" fill="none" xmlns="http://www.w3.org/2000/svg">
<path opacity="0.5" d="M13.2739 13.456C11.9433 13.4562 10.6424 13.0618 9.53588 12.3227C8.42936 11.5836 7.56686 10.5329 7.05745 9.30362C6.54804 8.07432 6.4146 6.72156 6.67401 5.41642C6.93341 4.11127 7.57402 2.91236 8.5148 1.9713C9.45559 1.03023 10.6543 0.38927 11.9594 0.129475C13.2644 -0.13032 14.6172 0.00271499 15.8467 0.511759C17.0762 1.0208 18.1271 1.88299 18.8665 2.9893C19.6059 4.0956 20.0007 5.39633 20.0009 6.727V6.728C19.9991 8.51164 19.2898 10.2217 18.0286 11.483C16.7675 12.7443 15.0576 13.4539 13.2739 13.456Z" fill="#BBCDD1"/>
<path d="M6.728 13.456C5.39733 13.456 4.09654 13.0614 2.99013 12.3221C1.88371 11.5828 1.02137 10.5321 0.512142 9.3027C0.00291514 8.07331 -0.130322 6.72054 0.12928 5.41544C0.388881 4.11033 1.02966 2.91152 1.97059 1.97059C2.91152 1.02966 4.11033 0.388881 5.41544 0.12928C6.72054 -0.130322 8.07332 0.00291532 9.3027 0.512142C10.5321 1.02137 11.5828 1.88371 12.3221 2.99013C13.0614 4.09654 13.456 5.39733 13.456 6.728C13.4542 8.51181 12.7447 10.222 11.4834 11.4834C10.222 12.7447 8.51181 13.4542 6.728 13.456Z" fill="#3D55A5"/>
</svg>
