<svg width="336" height="214" viewBox="0 0 336 214" fill="none" xmlns="http://www.w3.org/2000/svg">
<rect width="336" height="213.551" rx="15" fill="#BBCDD1"/>
<path d="M105.356 152.359C44.6095 72.2868 11.1864 166.748 4.89795 213.551H331.605C338.68 196 339.663 137.654 284.577 52.2689C215.718 -54.4621 181.289 252.449 105.356 152.359Z" fill="white" fill-opacity="0.1"/>
<path d="M24.5601 175.969H27.5301V184.114H32.5401V186.469H24.5601V175.969ZM33.7154 175.969H36.6854V186.469H33.7154V175.969ZM45.8334 184.429H41.3934L40.5684 186.469H37.5384L42.1734 175.969H45.0984L49.7484 186.469H46.6584L45.8334 184.429ZM44.9634 182.239L43.6134 178.879L42.2634 182.239H44.9634ZM60.0704 186.469L60.0404 180.904L57.3404 185.434H56.0204L53.3354 181.054V186.469H50.5904V175.969H53.0354L56.7254 182.029L60.3254 175.969H62.7704L62.8004 186.469H60.0704ZM78.1472 184.114V186.469H68.7422V184.609L74.0372 178.324H68.8772V175.969H77.9222V177.829L72.6272 184.114H78.1472ZM89.4378 175.969V186.469H86.4678V182.374H82.4178V186.469H79.4478V175.969H82.4178V179.914H86.4678V175.969H89.4378ZM98.5678 184.429H94.1278L93.3028 186.469H90.2728L94.9078 175.969H97.8328L102.483 186.469H99.3928L98.5678 184.429ZM97.6978 182.239L96.3478 178.879L94.9978 182.239H97.6978ZM113.315 175.969V186.469H110.87L106.235 180.874V186.469H103.325V175.969H105.77L110.405 181.564V175.969H113.315ZM122.445 180.994H125.07V185.344C124.47 185.774 123.78 186.104 123 186.334C122.22 186.564 121.44 186.679 120.66 186.679C119.56 186.679 118.57 186.449 117.69 185.989C116.81 185.519 116.12 184.869 115.62 184.039C115.12 183.209 114.87 182.269 114.87 181.219C114.87 180.169 115.12 179.229 115.62 178.399C116.12 177.569 116.815 176.924 117.705 176.464C118.595 175.994 119.6 175.759 120.72 175.759C121.7 175.759 122.58 175.924 123.36 176.254C124.14 176.584 124.79 177.059 125.31 177.679L123.42 179.389C122.71 178.609 121.86 178.219 120.87 178.219C119.97 178.219 119.245 178.494 118.695 179.044C118.145 179.584 117.87 180.309 117.87 181.219C117.87 181.799 117.995 182.319 118.245 182.779C118.495 183.229 118.845 183.584 119.295 183.844C119.745 184.094 120.26 184.219 120.84 184.219C121.41 184.219 121.945 184.104 122.445 183.874V180.994ZM130.643 186.679C129.793 186.679 128.968 186.574 128.168 186.364C127.368 186.154 126.718 185.874 126.218 185.524L127.193 183.334C127.663 183.644 128.208 183.894 128.828 184.084C129.448 184.274 130.058 184.369 130.658 184.369C131.798 184.369 132.368 184.084 132.368 183.514C132.368 183.214 132.203 182.994 131.873 182.854C131.553 182.704 131.033 182.549 130.313 182.389C129.523 182.219 128.863 182.039 128.333 181.849C127.803 181.649 127.348 181.334 126.968 180.904C126.588 180.474 126.398 179.894 126.398 179.164C126.398 178.524 126.573 177.949 126.923 177.439C127.273 176.919 127.793 176.509 128.483 176.209C129.183 175.909 130.038 175.759 131.048 175.759C131.738 175.759 132.418 175.839 133.088 175.999C133.758 176.149 134.348 176.374 134.858 176.674L133.943 178.879C132.943 178.339 131.973 178.069 131.033 178.069C130.443 178.069 130.013 178.159 129.743 178.339C129.473 178.509 129.338 178.734 129.338 179.014C129.338 179.294 129.498 179.504 129.818 179.644C130.138 179.784 130.653 179.929 131.363 180.079C132.163 180.249 132.823 180.434 133.343 180.634C133.873 180.824 134.328 181.134 134.708 181.564C135.098 181.984 135.293 182.559 135.293 183.289C135.293 183.919 135.118 184.489 134.768 184.999C134.418 185.509 133.893 185.919 133.193 186.229C132.493 186.529 131.643 186.679 130.643 186.679ZM146.655 175.969V186.469H143.685V182.374H139.635V186.469H136.665V175.969H139.635V179.914H143.685V175.969H146.655ZM153.595 186.679C152.035 186.679 150.82 186.254 149.95 185.404C149.09 184.554 148.66 183.349 148.66 181.789V175.969H151.63V181.699C151.63 183.379 152.295 184.219 153.625 184.219C154.945 184.219 155.605 183.379 155.605 181.699V175.969H158.53V181.789C158.53 183.349 158.095 184.554 157.225 185.404C156.365 186.254 155.155 186.679 153.595 186.679ZM165.837 186.679C164.727 186.679 163.727 186.444 162.837 185.974C161.957 185.504 161.262 184.854 160.752 184.024C160.252 183.194 160.002 182.259 160.002 181.219C160.002 180.179 160.252 179.244 160.752 178.414C161.262 177.584 161.957 176.934 162.837 176.464C163.727 175.994 164.727 175.759 165.837 175.759C166.947 175.759 167.942 175.994 168.822 176.464C169.712 176.934 170.407 177.584 170.907 178.414C171.417 179.244 171.672 180.179 171.672 181.219C171.672 182.259 171.417 183.194 170.907 184.024C170.407 184.854 169.712 185.504 168.822 185.974C167.942 186.444 166.947 186.679 165.837 186.679ZM165.837 184.219C166.367 184.219 166.847 184.094 167.277 183.844C167.707 183.594 168.047 183.244 168.297 182.794C168.547 182.334 168.672 181.809 168.672 181.219C168.672 180.629 168.547 180.109 168.297 179.659C168.047 179.199 167.707 178.844 167.277 178.594C166.847 178.344 166.367 178.219 165.837 178.219C165.307 178.219 164.827 178.344 164.397 178.594C163.967 178.844 163.627 179.199 163.377 179.659C163.127 180.109 163.002 180.629 163.002 181.219C163.002 181.809 163.127 182.334 163.377 182.794C163.627 183.244 163.967 183.594 164.397 183.844C164.827 184.094 165.307 184.219 165.837 184.219Z" fill="#4C5EA2"/>
<path d="M275.379 141.487C274.707 141.487 274.107 141.319 273.579 140.983C273.051 140.639 272.635 140.143 272.331 139.495C272.027 138.839 271.875 138.063 271.875 137.167C271.875 136.271 272.027 135.499 272.331 134.851C272.635 134.195 273.051 133.699 273.579 133.363C274.107 133.019 274.707 132.847 275.379 132.847C276.051 132.847 276.651 133.019 277.179 133.363C277.715 133.699 278.135 134.195 278.439 134.851C278.743 135.499 278.895 136.271 278.895 137.167C278.895 138.063 278.743 138.839 278.439 139.495C278.135 140.143 277.715 140.639 277.179 140.983C276.651 141.319 276.051 141.487 275.379 141.487ZM275.379 140.131C275.979 140.131 276.451 139.883 276.795 139.387C277.147 138.891 277.323 138.151 277.323 137.167C277.323 136.183 277.147 135.443 276.795 134.947C276.451 134.451 275.979 134.203 275.379 134.203C274.787 134.203 274.315 134.451 273.963 134.947C273.619 135.443 273.447 136.183 273.447 137.167C273.447 138.151 273.619 138.891 273.963 139.387C274.315 139.883 274.787 140.131 275.379 140.131ZM283.408 136.435C284.184 136.531 284.776 136.795 285.184 137.227C285.592 137.659 285.796 138.199 285.796 138.847C285.796 139.335 285.672 139.779 285.424 140.179C285.176 140.579 284.8 140.899 284.296 141.139C283.8 141.371 283.192 141.487 282.472 141.487C281.872 141.487 281.292 141.403 280.732 141.235C280.18 141.059 279.708 140.819 279.316 140.515L279.988 139.303C280.292 139.559 280.66 139.763 281.092 139.915C281.532 140.059 281.984 140.131 282.448 140.131C283 140.131 283.432 140.019 283.744 139.795C284.064 139.563 284.224 139.251 284.224 138.859C284.224 138.467 284.072 138.163 283.768 137.947C283.472 137.723 283.016 137.611 282.4 137.611H281.632V136.543L283.54 134.275H279.724V132.967H285.448V134.011L283.408 136.435ZM289.889 131.263H291.233L287.273 142.567H285.929L289.889 131.263ZM297.354 140.047V141.367H291.162V140.323L294.498 137.155C294.874 136.795 295.126 136.483 295.254 136.219C295.39 135.947 295.458 135.679 295.458 135.415C295.458 135.023 295.326 134.723 295.062 134.515C294.798 134.307 294.41 134.203 293.898 134.203C293.042 134.203 292.386 134.495 291.93 135.079L290.838 134.239C291.166 133.799 291.606 133.459 292.158 133.219C292.718 132.971 293.342 132.847 294.03 132.847C294.942 132.847 295.67 133.063 296.214 133.495C296.758 133.927 297.03 134.515 297.03 135.259C297.03 135.715 296.934 136.143 296.742 136.543C296.55 136.943 296.182 137.399 295.638 137.911L293.394 140.047H297.354ZM305.566 139.459H304.078V141.367H302.566V139.459H297.958V138.379L302.098 132.967H303.766L299.866 138.139H302.614V136.447H304.078V138.139H305.566V139.459Z" fill="#4C5EA2"/>
<path d="M248.094 132.106L246.234 136.306H245.796L243.936 132.106H244.416L246.024 135.754L247.644 132.106H248.094ZM251.209 135.184H248.869L248.365 136.306H247.903L249.823 132.106H250.261L252.181 136.306H251.713L251.209 135.184ZM251.047 134.824L250.039 132.568L249.031 134.824H251.047ZM252.876 132.106H253.32V135.922H255.672V136.306H252.876V132.106ZM256.409 132.106H256.853V136.306H256.409V132.106ZM258.22 132.106H259.93C260.374 132.106 260.766 132.196 261.106 132.376C261.446 132.552 261.71 132.8 261.898 133.12C262.086 133.436 262.18 133.798 262.18 134.206C262.18 134.614 262.086 134.978 261.898 135.298C261.71 135.614 261.446 135.862 261.106 136.042C260.766 136.218 260.374 136.306 259.93 136.306H258.22V132.106ZM259.906 135.922C260.274 135.922 260.596 135.85 260.872 135.706C261.148 135.558 261.362 135.356 261.514 135.1C261.666 134.84 261.742 134.542 261.742 134.206C261.742 133.87 261.666 133.574 261.514 133.318C261.362 133.058 261.148 132.856 260.872 132.712C260.596 132.564 260.274 132.49 259.906 132.49H258.664V135.922H259.906ZM245.418 138.49H243.942V138.106H247.338V138.49H245.862V142.306H245.418V138.49ZM251.558 138.106V142.306H251.12V140.368H248.492V142.306H248.048V138.106H248.492V139.978H251.12V138.106H251.558ZM255.797 142.306L254.837 140.956C254.729 140.968 254.617 140.974 254.501 140.974H253.373V142.306H252.929V138.106H254.501C255.037 138.106 255.457 138.234 255.761 138.49C256.065 138.746 256.217 139.098 256.217 139.546C256.217 139.874 256.133 140.152 255.965 140.38C255.801 140.604 255.565 140.766 255.257 140.866L256.283 142.306H255.797ZM254.489 140.596C254.905 140.596 255.223 140.504 255.443 140.32C255.663 140.136 255.773 139.878 255.773 139.546C255.773 139.206 255.663 138.946 255.443 138.766C255.223 138.582 254.905 138.49 254.489 138.49H253.373V140.596H254.489ZM258.957 142.342C258.413 142.342 257.989 142.186 257.685 141.874C257.381 141.562 257.229 141.108 257.229 140.512V138.106H257.673V140.494C257.673 140.982 257.783 141.346 258.003 141.586C258.223 141.826 258.541 141.946 258.957 141.946C259.377 141.946 259.697 141.826 259.917 141.586C260.137 141.346 260.247 140.982 260.247 140.494V138.106H260.679V140.512C260.679 141.108 260.527 141.562 260.223 141.874C259.923 142.186 259.501 142.342 258.957 142.342Z" fill="#4C5EA2"/>
<path d="M279.426 29.1415H283.098C283.994 29.1415 284.79 29.3175 285.486 29.6695C286.182 30.0135 286.722 30.5055 287.106 31.1455C287.49 31.7775 287.682 32.5095 287.682 33.3415C287.682 34.1735 287.49 34.9095 287.106 35.5495C286.722 36.1815 286.182 36.6735 285.486 37.0255C284.79 37.3695 283.994 37.5415 283.098 37.5415H279.426V29.1415ZM283.026 36.2215C283.642 36.2215 284.182 36.1055 284.646 35.8735C285.118 35.6335 285.478 35.2975 285.726 34.8655C285.982 34.4255 286.11 33.9175 286.11 33.3415C286.11 32.7655 285.982 32.2615 285.726 31.8295C285.478 31.3895 285.118 31.0535 284.646 30.8215C284.182 30.5815 283.642 30.4615 283.026 30.4615H280.986V36.2215H283.026ZM295.22 34.3735C295.22 34.4775 295.212 34.6255 295.196 34.8175H290.168C290.256 35.2895 290.484 35.6655 290.852 35.9455C291.228 36.2175 291.692 36.3535 292.244 36.3535C292.948 36.3535 293.528 36.1215 293.984 35.6575L294.788 36.5815C294.5 36.9255 294.136 37.1855 293.696 37.3615C293.256 37.5375 292.76 37.6255 292.208 37.6255C291.504 37.6255 290.884 37.4855 290.348 37.2055C289.812 36.9255 289.396 36.5375 289.1 36.0415C288.812 35.5375 288.668 34.9695 288.668 34.3375C288.668 33.7135 288.808 33.1535 289.088 32.6575C289.376 32.1535 289.772 31.7615 290.276 31.4815C290.78 31.2015 291.348 31.0615 291.98 31.0615C292.604 31.0615 293.16 31.2015 293.648 31.4815C294.144 31.7535 294.528 32.1415 294.8 32.6455C295.08 33.1415 295.22 33.7175 295.22 34.3735ZM291.98 32.2615C291.5 32.2615 291.092 32.4055 290.756 32.6935C290.428 32.9735 290.228 33.3495 290.156 33.8215H293.792C293.728 33.3575 293.532 32.9815 293.204 32.6935C292.876 32.4055 292.468 32.2615 291.98 32.2615ZM300.213 31.0615C300.837 31.0615 301.393 31.1975 301.881 31.4695C302.377 31.7415 302.765 32.1255 303.045 32.6215C303.325 33.1175 303.465 33.6895 303.465 34.3375C303.465 34.9855 303.325 35.5615 303.045 36.0655C302.765 36.5615 302.377 36.9455 301.881 37.2175C301.393 37.4895 300.837 37.6255 300.213 37.6255C299.773 37.6255 299.369 37.5495 299.001 37.3975C298.641 37.2455 298.337 37.0175 298.089 36.7135V37.5415H296.661V28.6375H298.161V31.9135C298.417 31.6335 298.717 31.4215 299.061 31.2775C299.413 31.1335 299.797 31.0615 300.213 31.0615ZM300.045 36.3415C300.597 36.3415 301.049 36.1575 301.401 35.7895C301.761 35.4215 301.941 34.9375 301.941 34.3375C301.941 33.7375 301.761 33.2535 301.401 32.8855C301.049 32.5175 300.597 32.3335 300.045 32.3335C299.685 32.3335 299.361 32.4175 299.073 32.5855C298.785 32.7455 298.557 32.9775 298.389 33.2815C298.221 33.5855 298.137 33.9375 298.137 34.3375C298.137 34.7375 298.221 35.0895 298.389 35.3935C298.557 35.6975 298.785 35.9335 299.073 36.1015C299.361 36.2615 299.685 36.3415 300.045 36.3415ZM304.888 31.1335H306.388V37.5415H304.888V31.1335ZM305.644 30.0775C305.372 30.0775 305.144 29.9935 304.96 29.8255C304.776 29.6495 304.684 29.4335 304.684 29.1775C304.684 28.9215 304.776 28.7095 304.96 28.5415C305.144 28.3655 305.372 28.2775 305.644 28.2775C305.916 28.2775 306.144 28.3615 306.328 28.5295C306.512 28.6895 306.604 28.8935 306.604 29.1415C306.604 29.4055 306.512 29.6295 306.328 29.8135C306.152 29.9895 305.924 30.0775 305.644 30.0775ZM312.209 37.1935C312.033 37.3375 311.817 37.4455 311.561 37.5175C311.313 37.5895 311.049 37.6255 310.769 37.6255C310.065 37.6255 309.521 37.4415 309.137 37.0735C308.753 36.7055 308.561 36.1695 308.561 35.4655V32.3815H307.505V31.1815H308.561V29.7175H310.061V31.1815H311.777V32.3815H310.061V35.4295C310.061 35.7415 310.137 35.9815 310.289 36.1495C310.441 36.3095 310.661 36.3895 310.949 36.3895C311.285 36.3895 311.565 36.3015 311.789 36.1255L312.209 37.1935Z" fill="#4C5EA2"/>
<circle cx="279.184" cy="176.327" r="13.7143" fill="#E33A24"/>
<circle cx="298.775" cy="176.327" r="13.7143" fill="#F8CB2E" fill-opacity="0.8"/>
<path d="M29.7501 132.569L31.9301 133.749L30.9501 135.389L28.7501 134.089L28.7901 136.509H26.9101L26.9301 134.069L24.7301 135.389L23.7701 133.749L25.9501 132.569L23.7701 131.369L24.7301 129.729L26.9301 131.049L26.9101 128.609H28.7901L28.7501 131.049L30.9501 129.729L31.9301 131.369L29.7501 132.569ZM39.2126 132.569L41.3926 133.749L40.4126 135.389L38.2126 134.089L38.2526 136.509H36.3726L36.3926 134.069L34.1926 135.389L33.2326 133.749L35.4126 132.569L33.2326 131.369L34.1926 129.729L36.3926 131.049L36.3726 128.609H38.2526L38.2126 131.049L40.4126 129.729L41.3926 131.369L39.2126 132.569ZM48.6751 132.569L50.8551 133.749L49.8751 135.389L47.6751 134.089L47.7151 136.509H45.8351L45.8551 134.069L43.6551 135.389L42.6951 133.749L44.8751 132.569L42.6951 131.369L43.6551 129.729L45.8551 131.049L45.8351 128.609H47.7151L47.6751 131.049L49.8751 129.729L50.8551 131.369L48.6751 132.569ZM58.1376 132.569L60.3176 133.749L59.3376 135.389L57.1376 134.089L57.1776 136.509H55.2976L55.3176 134.069L53.1176 135.389L52.1576 133.749L54.3376 132.569L52.1576 131.369L53.1176 129.729L55.3176 131.049L55.2976 128.609H57.1776L57.1376 131.049L59.3376 129.729L60.3176 131.369L58.1376 132.569ZM73.2736 132.569L75.4536 133.749L74.4736 135.389L72.2736 134.089L72.3136 136.509H70.4336L70.4536 134.069L68.2536 135.389L67.2936 133.749L69.4736 132.569L67.2936 131.369L68.2536 129.729L70.4536 131.049L70.4336 128.609H72.3136L72.2736 131.049L74.4736 129.729L75.4536 131.369L73.2736 132.569ZM82.7361 132.569L84.9161 133.749L83.9361 135.389L81.7361 134.089L81.7761 136.509H79.8961L79.9161 134.069L77.7161 135.389L76.7561 133.749L78.9361 132.569L76.7561 131.369L77.7161 129.729L79.9161 131.049L79.8961 128.609H81.7761L81.7361 131.049L83.9361 129.729L84.9161 131.369L82.7361 132.569ZM92.1986 132.569L94.3786 133.749L93.3986 135.389L91.1986 134.089L91.2386 136.509H89.3586L89.3786 134.069L87.1786 135.389L86.2186 133.749L88.3986 132.569L86.2186 131.369L87.1786 129.729L89.3786 131.049L89.3586 128.609H91.2386L91.1986 131.049L93.3986 129.729L94.3786 131.369L92.1986 132.569ZM101.661 132.569L103.841 133.749L102.861 135.389L100.661 134.089L100.701 136.509H98.8211L98.8411 134.069L96.6411 135.389L95.6811 133.749L97.8611 132.569L95.6811 131.369L96.6411 129.729L98.8411 131.049L98.8211 128.609H100.701L100.661 131.049L102.861 129.729L103.841 131.369L101.661 132.569ZM116.797 132.569L118.977 133.749L117.997 135.389L115.797 134.089L115.837 136.509H113.957L113.977 134.069L111.777 135.389L110.817 133.749L112.997 132.569L110.817 131.369L111.777 129.729L113.977 131.049L113.957 128.609H115.837L115.797 131.049L117.997 129.729L118.977 131.369L116.797 132.569ZM126.26 132.569L128.44 133.749L127.46 135.389L125.26 134.089L125.3 136.509H123.42L123.44 134.069L121.24 135.389L120.28 133.749L122.46 132.569L120.28 131.369L121.24 129.729L123.44 131.049L123.42 128.609H125.3L125.26 131.049L127.46 129.729L128.44 131.369L126.26 132.569ZM135.722 132.569L137.902 133.749L136.922 135.389L134.722 134.089L134.762 136.509H132.882L132.902 134.069L130.702 135.389L129.742 133.749L131.922 132.569L129.742 131.369L130.702 129.729L132.902 131.049L132.882 128.609H134.762L134.722 131.049L136.922 129.729L137.902 131.369L135.722 132.569ZM145.185 132.569L147.365 133.749L146.385 135.389L144.185 134.089L144.225 136.509H142.345L142.365 134.069L140.165 135.389L139.205 133.749L141.385 132.569L139.205 131.369L140.165 129.729L142.365 131.049L142.345 128.609H144.225L144.185 131.049L146.385 129.729L147.365 131.369L145.185 132.569ZM160.86 143.689C159.7 143.689 158.667 143.402 157.76 142.829C156.854 142.256 156.14 141.429 155.62 140.349C155.114 139.256 154.86 137.956 154.86 136.449C154.86 134.942 155.114 133.649 155.62 132.569C156.14 131.476 156.854 130.642 157.76 130.069C158.667 129.496 159.7 129.209 160.86 129.209C162.02 129.209 163.054 129.496 163.96 130.069C164.867 130.642 165.574 131.476 166.08 132.569C166.6 133.649 166.86 134.942 166.86 136.449C166.86 137.956 166.6 139.256 166.08 140.349C165.574 141.429 164.867 142.256 163.96 142.829C163.054 143.402 162.02 143.689 160.86 143.689ZM160.86 140.949C161.714 140.949 162.38 140.582 162.86 139.849C163.354 139.116 163.6 137.982 163.6 136.449C163.6 134.916 163.354 133.782 162.86 133.049C162.38 132.316 161.714 131.949 160.86 131.949C160.02 131.949 159.354 132.316 158.86 133.049C158.38 133.782 158.14 134.916 158.14 136.449C158.14 137.982 158.38 139.116 158.86 139.849C159.354 140.582 160.02 140.949 160.86 140.949ZM175.179 135.149C176.406 135.349 177.346 135.809 177.999 136.529C178.653 137.236 178.979 138.116 178.979 139.169C178.979 139.982 178.766 140.736 178.339 141.429C177.913 142.109 177.259 142.656 176.379 143.069C175.513 143.482 174.446 143.689 173.179 143.689C172.193 143.689 171.219 143.562 170.259 143.309C169.313 143.042 168.506 142.669 167.839 142.189L169.099 139.709C169.633 140.109 170.246 140.422 170.939 140.649C171.646 140.862 172.366 140.969 173.099 140.969C173.913 140.969 174.553 140.816 175.019 140.509C175.486 140.189 175.719 139.742 175.719 139.169C175.719 138.022 174.846 137.449 173.099 137.449H171.619V135.309L174.499 132.049H168.539V129.449H178.339V131.549L175.179 135.149ZM191.238 140.809V143.449H180.658V141.349L186.058 136.249C186.631 135.702 187.018 135.236 187.218 134.849C187.418 134.449 187.518 134.056 187.518 133.669C187.518 133.109 187.324 132.682 186.938 132.389C186.564 132.082 186.011 131.929 185.278 131.929C184.664 131.929 184.111 132.049 183.618 132.289C183.124 132.516 182.711 132.862 182.378 133.329L180.018 131.809C180.564 130.996 181.318 130.362 182.278 129.909C183.238 129.442 184.338 129.209 185.578 129.209C186.618 129.209 187.524 129.382 188.298 129.729C189.084 130.062 189.691 130.542 190.118 131.169C190.558 131.782 190.778 132.509 190.778 133.349C190.778 134.109 190.618 134.822 190.298 135.489C189.978 136.156 189.358 136.916 188.438 137.769L185.218 140.809H191.238ZM197.895 129.209C199.855 129.209 201.388 129.809 202.495 131.009C203.601 132.196 204.155 133.909 204.155 136.149C204.155 137.736 203.855 139.096 203.255 140.229C202.668 141.362 201.835 142.222 200.755 142.809C199.675 143.396 198.428 143.689 197.015 143.689C196.268 143.689 195.555 143.609 194.875 143.449C194.195 143.276 193.615 143.036 193.135 142.729L194.335 140.349C195.015 140.816 195.888 141.049 196.955 141.049C198.141 141.049 199.081 140.702 199.775 140.009C200.468 139.302 200.841 138.289 200.895 136.969C200.055 137.809 198.895 138.229 197.415 138.229C196.521 138.229 195.708 138.049 194.975 137.689C194.241 137.329 193.661 136.822 193.235 136.169C192.808 135.502 192.595 134.736 192.595 133.869C192.595 132.936 192.828 132.116 193.295 131.409C193.761 130.702 194.395 130.162 195.195 129.789C196.008 129.402 196.908 129.209 197.895 129.209ZM198.135 135.809C198.841 135.809 199.415 135.616 199.855 135.229C200.308 134.829 200.535 134.322 200.535 133.709C200.535 133.096 200.315 132.596 199.875 132.209C199.448 131.822 198.855 131.629 198.095 131.629C197.401 131.629 196.835 131.816 196.395 132.189C195.968 132.562 195.755 133.069 195.755 133.709C195.755 134.349 195.968 134.862 196.395 135.249C196.835 135.622 197.415 135.809 198.135 135.809Z" fill="#4C5EA2"/>
</svg>
