<svg width="292" height="168" viewBox="0 0 292 168" fill="none" xmlns="http://www.w3.org/2000/svg">
<g clip-path="url(#clip0_56_4240)">
<path d="M1.55176 4.91309H2.25488C2.52832 4.91309 2.75456 4.86589 2.93359 4.77148C3.11589 4.67708 3.25098 4.54688 3.33887 4.38086C3.42676 4.21484 3.4707 4.02441 3.4707 3.80957C3.4707 3.58496 3.43001 3.3929 3.34863 3.2334C3.27051 3.07064 3.15007 2.94531 2.9873 2.85742C2.8278 2.76953 2.62435 2.72559 2.37695 2.72559C2.16862 2.72559 1.97982 2.7679 1.81055 2.85254C1.64453 2.93392 1.5127 3.05111 1.41504 3.2041C1.31738 3.35384 1.26855 3.53288 1.26855 3.74121H0.0869141C0.0869141 3.36361 0.186198 3.02832 0.384766 2.73535C0.583333 2.44238 0.853516 2.21289 1.19531 2.04688C1.54036 1.8776 1.92773 1.79297 2.35742 1.79297C2.81641 1.79297 3.2168 1.86947 3.55859 2.02246C3.90365 2.1722 4.1722 2.39681 4.36426 2.69629C4.55632 2.99577 4.65234 3.36686 4.65234 3.80957C4.65234 4.01139 4.60514 4.21647 4.51074 4.4248C4.41634 4.63314 4.27637 4.82357 4.09082 4.99609C3.90527 5.16536 3.67415 5.30371 3.39746 5.41113C3.12077 5.5153 2.80013 5.56738 2.43555 5.56738H1.55176V4.91309ZM1.55176 5.83105V5.18652H2.43555C2.85221 5.18652 3.20703 5.23535 3.5 5.33301C3.79622 5.43066 4.03711 5.56576 4.22266 5.73828C4.4082 5.90755 4.54329 6.10124 4.62793 6.31934C4.71582 6.53743 4.75977 6.76855 4.75977 7.0127C4.75977 7.34473 4.69954 7.64095 4.5791 7.90137C4.46191 8.15853 4.29427 8.37663 4.07617 8.55566C3.85807 8.7347 3.60254 8.86979 3.30957 8.96094C3.01986 9.05208 2.7041 9.09766 2.3623 9.09766C2.05632 9.09766 1.76335 9.05534 1.4834 8.9707C1.20345 8.88607 0.952799 8.76074 0.731445 8.59473C0.510091 8.42546 0.33431 8.21549 0.204102 7.96484C0.0771484 7.71094 0.0136719 7.41797 0.0136719 7.08594H1.19043C1.19043 7.29753 1.23926 7.4847 1.33691 7.64746C1.43783 7.80697 1.5778 7.93229 1.75684 8.02344C1.93913 8.11458 2.14746 8.16016 2.38184 8.16016C2.62923 8.16016 2.84245 8.11621 3.02148 8.02832C3.20052 7.94043 3.33724 7.81022 3.43164 7.6377C3.5293 7.46517 3.57812 7.25684 3.57812 7.0127C3.57812 6.736 3.52441 6.51139 3.41699 6.33887C3.30957 6.16634 3.15658 6.03939 2.95801 5.95801C2.75944 5.87337 2.52507 5.83105 2.25488 5.83105H1.55176ZM10.4873 4.84961V6.01172C10.4873 6.56836 10.432 7.04362 10.3213 7.4375C10.2139 7.82812 10.0576 8.14551 9.85254 8.38965C9.64746 8.63379 9.40169 8.81283 9.11523 8.92676C8.83203 9.04069 8.51465 9.09766 8.16309 9.09766C7.88314 9.09766 7.62272 9.06185 7.38184 8.99023C7.14421 8.91862 6.92936 8.80632 6.7373 8.65332C6.54525 8.50033 6.38086 8.30339 6.24414 8.0625C6.11068 7.81836 6.00651 7.52702 5.93164 7.18848C5.86003 6.84993 5.82422 6.45768 5.82422 6.01172V4.84961C5.82422 4.28971 5.87956 3.81771 5.99023 3.43359C6.10091 3.04622 6.25879 2.7321 6.46387 2.49121C6.66895 2.24707 6.91309 2.06966 7.19629 1.95898C7.48275 1.84831 7.80176 1.79297 8.15332 1.79297C8.43652 1.79297 8.69694 1.82878 8.93457 1.90039C9.17546 1.96875 9.3903 2.0778 9.5791 2.22754C9.77116 2.37728 9.93392 2.57259 10.0674 2.81348C10.2041 3.05111 10.3083 3.33919 10.3799 3.67773C10.4515 4.01302 10.4873 4.40365 10.4873 4.84961ZM9.31055 6.17773V4.67383C9.31055 4.39062 9.29427 4.1416 9.26172 3.92676C9.22917 3.70866 9.18034 3.52474 9.11523 3.375C9.05339 3.22201 8.97526 3.09831 8.88086 3.00391C8.78646 2.90625 8.67904 2.83626 8.55859 2.79395C8.43815 2.74837 8.30306 2.72559 8.15332 2.72559C7.97103 2.72559 7.80827 2.76139 7.66504 2.83301C7.52181 2.90137 7.40137 3.01204 7.30371 3.16504C7.20605 3.31803 7.13118 3.51986 7.0791 3.77051C7.03027 4.0179 7.00586 4.31901 7.00586 4.67383V6.17773C7.00586 6.46419 7.02214 6.71647 7.05469 6.93457C7.08724 7.15267 7.13607 7.33984 7.20117 7.49609C7.26628 7.64909 7.3444 7.77604 7.43555 7.87695C7.52995 7.97461 7.63737 8.04622 7.75781 8.0918C7.88151 8.13737 8.0166 8.16016 8.16309 8.16016C8.34863 8.16016 8.51302 8.12435 8.65625 8.05273C8.79948 7.98112 8.91992 7.86719 9.01758 7.71094C9.11523 7.55143 9.18848 7.34473 9.2373 7.09082C9.28613 6.83691 9.31055 6.53255 9.31055 6.17773Z" fill="#3D55A5"/>
<path d="M15 6.00012L20 5.99988" stroke="#3D55A5"/>
<path d="M20 6H272" stroke="#3D55A5" stroke-opacity="0.1"/>
<path d="M4.93555 27.4911V28.4286H0.169922V27.6229L2.48438 25.0985C2.73828 24.812 2.93848 24.5646 3.08496 24.3563C3.23145 24.148 3.33398 23.9608 3.39258 23.7948C3.45443 23.6255 3.48535 23.4611 3.48535 23.3016C3.48535 23.077 3.44303 22.8801 3.3584 22.7108C3.27702 22.5383 3.15658 22.4032 2.99707 22.3055C2.83757 22.2046 2.64388 22.1542 2.41602 22.1542C2.15234 22.1542 1.93099 22.2111 1.75195 22.3251C1.57292 22.439 1.43783 22.5969 1.34668 22.7987C1.25553 22.9973 1.20996 23.2251 1.20996 23.4823H0.0332031C0.0332031 23.0689 0.127604 22.6913 0.316406 22.3495C0.505208 22.0044 0.778646 21.731 1.13672 21.5292C1.49479 21.3241 1.92611 21.2215 2.43066 21.2215C2.90592 21.2215 3.30957 21.3013 3.6416 21.4608C3.97363 21.6203 4.22591 21.8465 4.39844 22.1395C4.57422 22.4325 4.66211 22.7792 4.66211 23.1796C4.66211 23.4009 4.6263 23.6206 4.55469 23.8387C4.48307 24.0568 4.38053 24.2749 4.24707 24.493C4.11686 24.7079 3.96224 24.9243 3.7832 25.1424C3.60417 25.3573 3.40723 25.5754 3.19238 25.7967L1.6543 27.4911H4.93555ZM7.08887 25.1229L6.15137 24.8934L6.53711 21.3192H10.3701V22.3153H7.51367L7.31836 24.0585C7.42904 23.9934 7.58203 23.9299 7.77734 23.868C7.97266 23.8029 8.19564 23.7704 8.44629 23.7704C8.78158 23.7704 9.08105 23.8257 9.34473 23.9364C9.61165 24.0438 9.83789 24.2017 10.0234 24.41C10.209 24.6151 10.3506 24.8657 10.4482 25.162C10.5459 25.4549 10.5947 25.7853 10.5947 26.1532C10.5947 26.482 10.5459 26.7896 10.4482 27.076C10.3538 27.3625 10.2106 27.6148 10.0186 27.8329C9.8265 28.051 9.58398 28.2219 9.29102 28.3456C9.0013 28.466 8.65788 28.5262 8.26074 28.5262C7.96452 28.5262 7.67969 28.4839 7.40625 28.3993C7.13607 28.3114 6.89355 28.1828 6.67871 28.0135C6.46387 27.841 6.29134 27.6294 6.16113 27.3788C6.03092 27.1249 5.95605 26.8335 5.93652 26.5047H7.08887C7.11816 26.7359 7.18164 26.9328 7.2793 27.0956C7.38021 27.2551 7.51367 27.3771 7.67969 27.4618C7.8457 27.5464 8.03776 27.5887 8.25586 27.5887C8.45443 27.5887 8.62533 27.5546 8.76855 27.4862C8.91178 27.4146 9.0306 27.3137 9.125 27.1835C9.22266 27.05 9.29427 26.8937 9.33984 26.7147C9.38867 26.5357 9.41309 26.3371 9.41309 26.119C9.41309 25.9107 9.38542 25.7202 9.33008 25.5477C9.27799 25.3752 9.19824 25.2254 9.09082 25.0985C8.98665 24.9715 8.85482 24.8739 8.69531 24.8055C8.53581 24.7339 8.35189 24.6981 8.14355 24.6981C7.86361 24.6981 7.64876 24.7388 7.49902 24.8202C7.35254 24.9016 7.21582 25.0025 7.08887 25.1229Z" fill="#3D55A5"/>
<path d="M15 25.4287L20 25.4285" stroke="#3D55A5"/>
<path d="M20 25.4286H272" stroke="#3D55A5" stroke-opacity="0.1"/>
<path d="M4.93555 46.9196V47.8571H0.169922V47.0515L2.48438 44.5271C2.73828 44.2406 2.93848 43.9932 3.08496 43.7849C3.23145 43.5765 3.33398 43.3894 3.39258 43.2234C3.45443 43.0541 3.48535 42.8897 3.48535 42.7302C3.48535 42.5056 3.44303 42.3086 3.3584 42.1394C3.27702 41.9668 3.15658 41.8318 2.99707 41.7341C2.83757 41.6332 2.64388 41.5827 2.41602 41.5827C2.15234 41.5827 1.93099 41.6397 1.75195 41.7536C1.57292 41.8676 1.43783 42.0254 1.34668 42.2273C1.25553 42.4258 1.20996 42.6537 1.20996 42.9109H0.0332031C0.0332031 42.4974 0.127604 42.1198 0.316406 41.778C0.505208 41.433 0.778646 41.1596 1.13672 40.9577C1.49479 40.7527 1.92611 40.6501 2.43066 40.6501C2.90592 40.6501 3.30957 40.7299 3.6416 40.8894C3.97363 41.0489 4.22591 41.2751 4.39844 41.5681C4.57422 41.8611 4.66211 42.2077 4.66211 42.6081C4.66211 42.8295 4.6263 43.0492 4.55469 43.2673C4.48307 43.4854 4.38053 43.7035 4.24707 43.9216C4.11686 44.1364 3.96224 44.3529 3.7832 44.571C3.60417 44.7859 3.40723 45.004 3.19238 45.2253L1.6543 46.9196H4.93555ZM10.4873 43.7068V44.8689C10.4873 45.4255 10.432 45.9008 10.3213 46.2946C10.2139 46.6853 10.0576 47.0027 9.85254 47.2468C9.64746 47.4909 9.40169 47.67 9.11523 47.7839C8.83203 47.8978 8.51465 47.9548 8.16309 47.9548C7.88314 47.9548 7.62272 47.919 7.38184 47.8474C7.14421 47.7758 6.92936 47.6635 6.7373 47.5105C6.54525 47.3575 6.38086 47.1605 6.24414 46.9196C6.11068 46.6755 6.00651 46.3842 5.93164 46.0456C5.86003 45.7071 5.82422 45.3148 5.82422 44.8689V43.7068C5.82422 43.1469 5.87956 42.6749 5.99023 42.2907C6.10091 41.9034 6.25879 41.5892 6.46387 41.3484C6.66895 41.1042 6.91309 40.9268 7.19629 40.8161C7.48275 40.7055 7.80176 40.6501 8.15332 40.6501C8.43652 40.6501 8.69694 40.6859 8.93457 40.7575C9.17546 40.8259 9.3903 40.9349 9.5791 41.0847C9.77116 41.2344 9.93392 41.4297 10.0674 41.6706C10.2041 41.9083 10.3083 42.1963 10.3799 42.5349C10.4515 42.8702 10.4873 43.2608 10.4873 43.7068ZM9.31055 45.0349V43.531C9.31055 43.2478 9.29427 42.9987 9.26172 42.7839C9.22917 42.5658 9.18034 42.3819 9.11523 42.2321C9.05339 42.0792 8.97526 41.9555 8.88086 41.8611C8.78646 41.7634 8.67904 41.6934 8.55859 41.6511C8.43815 41.6055 8.30306 41.5827 8.15332 41.5827C7.97103 41.5827 7.80827 41.6185 7.66504 41.6902C7.52181 41.7585 7.40137 41.8692 7.30371 42.0222C7.20605 42.1752 7.13118 42.377 7.0791 42.6277C7.03027 42.8751 7.00586 43.1762 7.00586 43.531V45.0349C7.00586 45.3213 7.02214 45.5736 7.05469 45.7917C7.08724 46.0098 7.13607 46.197 7.20117 46.3532C7.26628 46.5062 7.3444 46.6332 7.43555 46.7341C7.52995 46.8318 7.63737 46.9034 7.75781 46.9489C7.88151 46.9945 8.0166 47.0173 8.16309 47.0173C8.34863 47.0173 8.51302 46.9815 8.65625 46.9099C8.79948 46.8383 8.91992 46.7243 9.01758 46.5681C9.11523 46.4086 9.18848 46.2019 9.2373 45.948C9.28613 45.6941 9.31055 45.3897 9.31055 45.0349Z" fill="#3D55A5"/>
<path d="M15 44.8573L20 44.857" stroke="#3D55A5"/>
<path d="M20 44.8571H272" stroke="#3D55A5" stroke-opacity="0.1"/>
<path d="M3.38281 60.1519V67.2857H2.20605V61.5484L0.462891 62.1392V61.1675L3.24121 60.1519H3.38281ZM7.08887 63.98L6.15137 63.7506L6.53711 60.1763H10.3701V61.1724H7.51367L7.31836 62.9156C7.42904 62.8505 7.58203 62.787 7.77734 62.7252C7.97266 62.6601 8.19564 62.6275 8.44629 62.6275C8.78158 62.6275 9.08105 62.6828 9.34473 62.7935C9.61165 62.9009 9.83789 63.0588 10.0234 63.2672C10.209 63.4722 10.3506 63.7229 10.4482 64.0191C10.5459 64.3121 10.5947 64.6425 10.5947 65.0103C10.5947 65.3391 10.5459 65.6467 10.4482 65.9332C10.3538 66.2196 10.2106 66.4719 10.0186 66.69C9.8265 66.9081 9.58398 67.079 9.29102 67.2027C9.0013 67.3231 8.65788 67.3834 8.26074 67.3834C7.96452 67.3834 7.67969 67.3411 7.40625 67.2564C7.13607 67.1685 6.89355 67.0399 6.67871 66.8707C6.46387 66.6981 6.29134 66.4866 6.16113 66.2359C6.03092 65.982 5.95605 65.6907 5.93652 65.3619H7.08887C7.11816 65.593 7.18164 65.7899 7.2793 65.9527C7.38021 66.1122 7.51367 66.2343 7.67969 66.3189C7.8457 66.4036 8.03776 66.4459 8.25586 66.4459C8.45443 66.4459 8.62533 66.4117 8.76855 66.3433C8.91178 66.2717 9.0306 66.1708 9.125 66.0406C9.22266 65.9071 9.29427 65.7509 9.33984 65.5718C9.38867 65.3928 9.41309 65.1942 9.41309 64.9761C9.41309 64.7678 9.38542 64.5774 9.33008 64.4049C9.27799 64.2323 9.19824 64.0826 9.09082 63.9556C8.98665 63.8287 8.85482 63.731 8.69531 63.6627C8.53581 63.5911 8.35189 63.5552 8.14355 63.5552C7.86361 63.5552 7.64876 63.5959 7.49902 63.6773C7.35254 63.7587 7.21582 63.8596 7.08887 63.98Z" fill="#3D55A5"/>
<path d="M15 64.2858L20 64.2856" stroke="#3D55A5"/>
<path d="M20 64.2857H272" stroke="#3D55A5" stroke-opacity="0.1"/>
<path d="M3.38281 79.5805V86.7143H2.20605V80.977L0.462891 81.5678V80.5961L3.24121 79.5805H3.38281ZM10.4873 82.5639V83.726C10.4873 84.2827 10.432 84.7579 10.3213 85.1518C10.2139 85.5424 10.0576 85.8598 9.85254 86.1039C9.64746 86.3481 9.40169 86.5271 9.11523 86.6411C8.83203 86.755 8.51465 86.812 8.16309 86.812C7.88314 86.812 7.62272 86.7761 7.38184 86.7045C7.14421 86.6329 6.92936 86.5206 6.7373 86.3676C6.54525 86.2146 6.38086 86.0177 6.24414 85.7768C6.11068 85.5327 6.00651 85.2413 5.93164 84.9028C5.86003 84.5642 5.82422 84.172 5.82422 83.726V82.5639C5.82422 82.004 5.87956 81.532 5.99023 81.1479C6.10091 80.7605 6.25879 80.4464 6.46387 80.2055C6.66895 79.9614 6.91309 79.784 7.19629 79.6733C7.48275 79.5626 7.80176 79.5073 8.15332 79.5073C8.43652 79.5073 8.69694 79.5431 8.93457 79.6147C9.17546 79.683 9.3903 79.7921 9.5791 79.9418C9.77116 80.0916 9.93392 80.2869 10.0674 80.5278C10.2041 80.7654 10.3083 81.0535 10.3799 81.392C10.4515 81.7273 10.4873 82.1179 10.4873 82.5639ZM9.31055 83.892V82.3881C9.31055 82.1049 9.29427 81.8559 9.26172 81.6411C9.22917 81.423 9.18034 81.239 9.11523 81.0893C9.05339 80.9363 8.97526 80.8126 8.88086 80.7182C8.78646 80.6205 8.67904 80.5506 8.55859 80.5082C8.43815 80.4627 8.30306 80.4399 8.15332 80.4399C7.97103 80.4399 7.80827 80.4757 7.66504 80.5473C7.52181 80.6157 7.40137 80.7263 7.30371 80.8793C7.20605 81.0323 7.13118 81.2342 7.0791 81.4848C7.03027 81.7322 7.00586 82.0333 7.00586 82.3881V83.892C7.00586 84.1785 7.02214 84.4308 7.05469 84.6489C7.08724 84.867 7.13607 85.0541 7.20117 85.2104C7.26628 85.3634 7.3444 85.4903 7.43555 85.5912C7.52995 85.6889 7.63737 85.7605 7.75781 85.8061C7.88151 85.8517 8.0166 85.8745 8.16309 85.8745C8.34863 85.8745 8.51302 85.8386 8.65625 85.767C8.79948 85.6954 8.91992 85.5815 9.01758 85.4252C9.11523 85.2657 9.18848 85.059 9.2373 84.8051C9.28613 84.5512 9.31055 84.2468 9.31055 83.892Z" fill="#3D55A5"/>
<path d="M15 83.7144L20 83.7142" stroke="#3D55A5"/>
<path d="M20 83.7143H272" stroke="#3D55A5" stroke-opacity="0.1"/>
<path d="M7.08887 102.837L6.15137 102.608L6.53711 99.0335H10.3701V100.03H7.51367L7.31836 101.773C7.42904 101.708 7.58203 101.644 7.77734 101.582C7.97266 101.517 8.19564 101.485 8.44629 101.485C8.78158 101.485 9.08105 101.54 9.34473 101.651C9.61165 101.758 9.83789 101.916 10.0234 102.124C10.209 102.329 10.3506 102.58 10.4482 102.876C10.5459 103.169 10.5947 103.5 10.5947 103.867C10.5947 104.196 10.5459 104.504 10.4482 104.79C10.3538 105.077 10.2106 105.329 10.0186 105.547C9.8265 105.765 9.58398 105.936 9.29102 106.06C9.0013 106.18 8.65788 106.241 8.26074 106.241C7.96452 106.241 7.67969 106.198 7.40625 106.114C7.13607 106.026 6.89355 105.897 6.67871 105.728C6.46387 105.555 6.29134 105.344 6.16113 105.093C6.03092 104.839 5.95605 104.548 5.93652 104.219H7.08887C7.11816 104.45 7.18164 104.647 7.2793 104.81C7.38021 104.969 7.51367 105.091 7.67969 105.176C7.8457 105.261 8.03776 105.303 8.25586 105.303C8.45443 105.303 8.62533 105.269 8.76855 105.2C8.91178 105.129 9.0306 105.028 9.125 104.898C9.22266 104.764 9.29427 104.608 9.33984 104.429C9.38867 104.25 9.41309 104.051 9.41309 103.833C9.41309 103.625 9.38542 103.435 9.33008 103.262C9.27799 103.089 9.19824 102.94 9.09082 102.813C8.98665 102.686 8.85482 102.588 8.69531 102.52C8.53581 102.448 8.35189 102.412 8.14355 102.412C7.86361 102.412 7.64876 102.453 7.49902 102.534C7.35254 102.616 7.21582 102.717 7.08887 102.837Z" fill="#3D55A5"/>
<path d="M15 103.143L20 103.143" stroke="#3D55A5"/>
<path d="M20 103.143H272" stroke="#3D55A5" stroke-opacity="0.1"/>
<path d="M10.4873 121.421V122.583C10.4873 123.14 10.432 123.615 10.3213 124.009C10.2139 124.4 10.0576 124.717 9.85254 124.961C9.64746 125.205 9.40169 125.384 9.11523 125.498C8.83203 125.612 8.51465 125.669 8.16309 125.669C7.88314 125.669 7.62272 125.633 7.38184 125.562C7.14421 125.49 6.92936 125.378 6.7373 125.225C6.54525 125.072 6.38086 124.875 6.24414 124.634C6.11068 124.39 6.00651 124.098 5.93164 123.76C5.86003 123.421 5.82422 123.029 5.82422 122.583V121.421C5.82422 120.861 5.87956 120.389 5.99023 120.005C6.10091 119.618 6.25879 119.304 6.46387 119.063C6.66895 118.819 6.91309 118.641 7.19629 118.53C7.48275 118.42 7.80176 118.364 8.15332 118.364C8.43652 118.364 8.69694 118.4 8.93457 118.472C9.17546 118.54 9.3903 118.649 9.5791 118.799C9.77116 118.949 9.93392 119.144 10.0674 119.385C10.2041 119.623 10.3083 119.911 10.3799 120.249C10.4515 120.584 10.4873 120.975 10.4873 121.421ZM9.31055 122.749V121.245C9.31055 120.962 9.29427 120.713 9.26172 120.498C9.22917 120.28 9.18034 120.096 9.11523 119.946C9.05339 119.793 8.97526 119.67 8.88086 119.575C8.78646 119.478 8.67904 119.408 8.55859 119.365C8.43815 119.32 8.30306 119.297 8.15332 119.297C7.97103 119.297 7.80827 119.333 7.66504 119.404C7.52181 119.473 7.40137 119.583 7.30371 119.736C7.20605 119.889 7.13118 120.091 7.0791 120.342C7.03027 120.589 7.00586 120.89 7.00586 121.245V122.749C7.00586 123.036 7.02214 123.288 7.05469 123.506C7.08724 123.724 7.13607 123.911 7.20117 124.068C7.26628 124.221 7.3444 124.347 7.43555 124.448C7.52995 124.546 7.63737 124.618 7.75781 124.663C7.88151 124.709 8.0166 124.732 8.16309 124.732C8.34863 124.732 8.51302 124.696 8.65625 124.624C8.79948 124.553 8.91992 124.439 9.01758 124.282C9.11523 124.123 9.18848 123.916 9.2373 123.662C9.28613 123.408 9.31055 123.104 9.31055 122.749Z" fill="#3D55A5"/>
<path d="M15 122.572L20 122.571" stroke="#3D55A5"/>
<path d="M20 122.571H272" stroke="#3D55A5" stroke-opacity="0.1"/>
<path d="M4.8916 141.494V142.432H2.30859V141.494H4.8916ZM7.08887 141.694L6.15137 141.465L6.53711 137.891H10.3701V138.887H7.51367L7.31836 140.63C7.42904 140.565 7.58203 140.501 7.77734 140.439C7.97266 140.374 8.19564 140.342 8.44629 140.342C8.78158 140.342 9.08105 140.397 9.34473 140.508C9.61165 140.615 9.83789 140.773 10.0234 140.981C10.209 141.187 10.3506 141.437 10.4482 141.733C10.5459 142.026 10.5947 142.357 10.5947 142.725C10.5947 143.053 10.5459 143.361 10.4482 143.647C10.3538 143.934 10.2106 144.186 10.0186 144.404C9.8265 144.622 9.58398 144.793 9.29102 144.917C9.0013 145.037 8.65788 145.098 8.26074 145.098C7.96452 145.098 7.67969 145.055 7.40625 144.971C7.13607 144.883 6.89355 144.754 6.67871 144.585C6.46387 144.412 6.29134 144.201 6.16113 143.95C6.03092 143.696 5.95605 143.405 5.93652 143.076H7.08887C7.11816 143.307 7.18164 143.504 7.2793 143.667C7.38021 143.826 7.51367 143.949 7.67969 144.033C7.8457 144.118 8.03776 144.16 8.25586 144.16C8.45443 144.16 8.62533 144.126 8.76855 144.058C8.91178 143.986 9.0306 143.885 9.125 143.755C9.22266 143.621 9.29427 143.465 9.33984 143.286C9.38867 143.107 9.41309 142.909 9.41309 142.69C9.41309 142.482 9.38542 142.292 9.33008 142.119C9.27799 141.947 9.19824 141.797 9.09082 141.67C8.98665 141.543 8.85482 141.445 8.69531 141.377C8.53581 141.305 8.35189 141.27 8.14355 141.27C7.86361 141.27 7.64876 141.31 7.49902 141.392C7.35254 141.473 7.21582 141.574 7.08887 141.694Z" fill="#3D55A5"/>
<path d="M15 142L20 142" stroke="#3D55A5"/>
<path d="M20 142H272" stroke="#3D55A5" stroke-opacity="0.1"/>
<path d="M61 147V152" stroke="#3D55A5"/>
<path d="M47.8604 164.062V165H43.0947V164.194L45.4092 161.67C45.6631 161.383 45.8633 161.136 46.0098 160.928C46.1562 160.719 46.2588 160.532 46.3174 160.366C46.3792 160.197 46.4102 160.033 46.4102 159.873C46.4102 159.648 46.3678 159.451 46.2832 159.282C46.2018 159.11 46.0814 158.975 45.9219 158.877C45.7624 158.776 45.5687 158.726 45.3408 158.726C45.0771 158.726 44.8558 158.783 44.6768 158.896C44.4977 159.01 44.3626 159.168 44.2715 159.37C44.1803 159.569 44.1348 159.797 44.1348 160.054H42.958C42.958 159.64 43.0524 159.263 43.2412 158.921C43.43 158.576 43.7035 158.302 44.0615 158.101C44.4196 157.896 44.8509 157.793 45.3555 157.793C45.8307 157.793 46.2344 157.873 46.5664 158.032C46.8984 158.192 47.1507 158.418 47.3232 158.711C47.499 159.004 47.5869 159.351 47.5869 159.751C47.5869 159.972 47.5511 160.192 47.4795 160.41C47.4079 160.628 47.3053 160.846 47.1719 161.064C47.0417 161.279 46.887 161.496 46.708 161.714C46.529 161.929 46.332 162.147 46.1172 162.368L44.5791 164.062H47.8604ZM53.4121 160.85V162.012C53.4121 162.568 53.3568 163.044 53.2461 163.438C53.1387 163.828 52.9824 164.146 52.7773 164.39C52.5723 164.634 52.3265 164.813 52.04 164.927C51.7568 165.041 51.4395 165.098 51.0879 165.098C50.8079 165.098 50.5475 165.062 50.3066 164.99C50.069 164.919 49.8542 164.806 49.6621 164.653C49.4701 164.5 49.3057 164.303 49.1689 164.062C49.0355 163.818 48.9313 163.527 48.8564 163.188C48.7848 162.85 48.749 162.458 48.749 162.012V160.85C48.749 160.29 48.8044 159.818 48.915 159.434C49.0257 159.046 49.1836 158.732 49.3887 158.491C49.5938 158.247 49.8379 158.07 50.1211 157.959C50.4076 157.848 50.7266 157.793 51.0781 157.793C51.3613 157.793 51.6217 157.829 51.8594 157.9C52.1003 157.969 52.3151 158.078 52.5039 158.228C52.696 158.377 52.8587 158.573 52.9922 158.813C53.1289 159.051 53.2331 159.339 53.3047 159.678C53.3763 160.013 53.4121 160.404 53.4121 160.85ZM52.2354 162.178V160.674C52.2354 160.391 52.2191 160.142 52.1865 159.927C52.154 159.709 52.1051 159.525 52.04 159.375C51.9782 159.222 51.9001 159.098 51.8057 159.004C51.7113 158.906 51.6038 158.836 51.4834 158.794C51.363 158.748 51.2279 158.726 51.0781 158.726C50.8958 158.726 50.7331 158.761 50.5898 158.833C50.4466 158.901 50.3262 159.012 50.2285 159.165C50.1309 159.318 50.056 159.52 50.0039 159.771C49.9551 160.018 49.9307 160.319 49.9307 160.674V162.178C49.9307 162.464 49.9469 162.716 49.9795 162.935C50.012 163.153 50.0609 163.34 50.126 163.496C50.1911 163.649 50.2692 163.776 50.3604 163.877C50.4548 163.975 50.5622 164.046 50.6826 164.092C50.8063 164.137 50.9414 164.16 51.0879 164.16C51.2734 164.16 51.4378 164.124 51.5811 164.053C51.7243 163.981 51.8447 163.867 51.9424 163.711C52.04 163.551 52.1133 163.345 52.1621 163.091C52.2109 162.837 52.2354 162.533 52.2354 162.178ZM59.2275 164.062V165H54.4619V164.194L56.7764 161.67C57.0303 161.383 57.2305 161.136 57.377 160.928C57.5234 160.719 57.626 160.532 57.6846 160.366C57.7464 160.197 57.7773 160.033 57.7773 159.873C57.7773 159.648 57.735 159.451 57.6504 159.282C57.569 159.11 57.4486 158.975 57.2891 158.877C57.1296 158.776 56.9359 158.726 56.708 158.726C56.4443 158.726 56.223 158.783 56.0439 158.896C55.8649 159.01 55.7298 159.168 55.6387 159.37C55.5475 159.569 55.502 159.797 55.502 160.054H54.3252C54.3252 159.64 54.4196 159.263 54.6084 158.921C54.7972 158.576 55.0706 158.302 55.4287 158.101C55.7868 157.896 56.2181 157.793 56.7227 157.793C57.1979 157.793 57.6016 157.873 57.9336 158.032C58.2656 158.192 58.5179 158.418 58.6904 158.711C58.8662 159.004 58.9541 159.351 58.9541 159.751C58.9541 159.972 58.9183 160.192 58.8467 160.41C58.7751 160.628 58.6725 160.846 58.5391 161.064C58.4089 161.279 58.2542 161.496 58.0752 161.714C57.8962 161.929 57.6992 162.147 57.4844 162.368L55.9463 164.062H59.2275ZM64.9111 164.062V165H60.1455V164.194L62.46 161.67C62.7139 161.383 62.9141 161.136 63.0605 160.928C63.207 160.719 63.3096 160.532 63.3682 160.366C63.43 160.197 63.4609 160.033 63.4609 159.873C63.4609 159.648 63.4186 159.451 63.334 159.282C63.2526 159.11 63.1322 158.975 62.9727 158.877C62.8132 158.776 62.6195 158.726 62.3916 158.726C62.1279 158.726 61.9066 158.783 61.7275 158.896C61.5485 159.01 61.4134 159.168 61.3223 159.37C61.2311 159.569 61.1855 159.797 61.1855 160.054H60.0088C60.0088 159.64 60.1032 159.263 60.292 158.921C60.4808 158.576 60.7542 158.302 61.1123 158.101C61.4704 157.896 61.9017 157.793 62.4062 157.793C62.8815 157.793 63.2852 157.873 63.6172 158.032C63.9492 158.192 64.2015 158.418 64.374 158.711C64.5498 159.004 64.6377 159.351 64.6377 159.751C64.6377 159.972 64.6019 160.192 64.5303 160.41C64.4587 160.628 64.3561 160.846 64.2227 161.064C64.0924 161.279 63.9378 161.496 63.7588 161.714C63.5798 161.929 63.3828 162.147 63.168 162.368L61.6299 164.062H64.9111ZM65.9463 164.414C65.9463 164.232 66.0081 164.079 66.1318 163.955C66.2555 163.828 66.4232 163.765 66.6348 163.765C66.8496 163.765 67.0173 163.828 67.1377 163.955C67.2614 164.079 67.3232 164.232 67.3232 164.414C67.3232 164.596 67.2614 164.749 67.1377 164.873C67.0173 164.997 66.8496 165.059 66.6348 165.059C66.4232 165.059 66.2555 164.997 66.1318 164.873C66.0081 164.749 65.9463 164.596 65.9463 164.414ZM73.2461 160.85V162.012C73.2461 162.568 73.1908 163.044 73.0801 163.438C72.9727 163.828 72.8164 164.146 72.6113 164.39C72.4062 164.634 72.1605 164.813 71.874 164.927C71.5908 165.041 71.2734 165.098 70.9219 165.098C70.6419 165.098 70.3815 165.062 70.1406 164.99C69.903 164.919 69.6882 164.806 69.4961 164.653C69.304 164.5 69.1396 164.303 69.0029 164.062C68.8695 163.818 68.7653 163.527 68.6904 163.188C68.6188 162.85 68.583 162.458 68.583 162.012V160.85C68.583 160.29 68.6383 159.818 68.749 159.434C68.8597 159.046 69.0176 158.732 69.2227 158.491C69.4277 158.247 69.6719 158.07 69.9551 157.959C70.2415 157.848 70.5605 157.793 70.9121 157.793C71.1953 157.793 71.4557 157.829 71.6934 157.9C71.9342 157.969 72.1491 158.078 72.3379 158.228C72.5299 158.377 72.6927 158.573 72.8262 158.813C72.9629 159.051 73.0671 159.339 73.1387 159.678C73.2103 160.013 73.2461 160.404 73.2461 160.85ZM72.0693 162.178V160.674C72.0693 160.391 72.0531 160.142 72.0205 159.927C71.988 159.709 71.9391 159.525 71.874 159.375C71.8122 159.222 71.734 159.098 71.6396 159.004C71.5452 158.906 71.4378 158.836 71.3174 158.794C71.1969 158.748 71.0618 158.726 70.9121 158.726C70.7298 158.726 70.5671 158.761 70.4238 158.833C70.2806 158.901 70.1602 159.012 70.0625 159.165C69.9648 159.318 69.89 159.52 69.8379 159.771C69.7891 160.018 69.7646 160.319 69.7646 160.674V162.178C69.7646 162.464 69.7809 162.716 69.8135 162.935C69.846 163.153 69.8949 163.34 69.96 163.496C70.0251 163.649 70.1032 163.776 70.1943 163.877C70.2887 163.975 70.3962 164.046 70.5166 164.092C70.6403 164.137 70.7754 164.16 70.9219 164.16C71.1074 164.16 71.2718 164.124 71.415 164.053C71.5583 163.981 71.6787 163.867 71.7764 163.711C71.874 163.551 71.9473 163.345 71.9961 163.091C72.0449 162.837 72.0693 162.533 72.0693 162.178ZM77.5088 157.866V165H76.332V159.263L74.5889 159.854V158.882L77.3672 157.866H77.5088Z" fill="#3D55A5"/>
<path d="M138 147V152" stroke="#3D55A5"/>
<path d="M124.86 164.062V165H120.095V164.194L122.409 161.67C122.663 161.383 122.863 161.136 123.01 160.928C123.156 160.719 123.259 160.532 123.317 160.366C123.379 160.197 123.41 160.033 123.41 159.873C123.41 159.648 123.368 159.451 123.283 159.282C123.202 159.11 123.081 158.975 122.922 158.877C122.762 158.776 122.569 158.726 122.341 158.726C122.077 158.726 121.856 158.783 121.677 158.896C121.498 159.01 121.363 159.168 121.271 159.37C121.18 159.569 121.135 159.797 121.135 160.054H119.958C119.958 159.64 120.052 159.263 120.241 158.921C120.43 158.576 120.703 158.302 121.062 158.101C121.42 157.896 121.851 157.793 122.355 157.793C122.831 157.793 123.234 157.873 123.566 158.032C123.898 158.192 124.151 158.418 124.323 158.711C124.499 159.004 124.587 159.351 124.587 159.751C124.587 159.972 124.551 160.192 124.479 160.41C124.408 160.628 124.305 160.846 124.172 161.064C124.042 161.279 123.887 161.496 123.708 161.714C123.529 161.929 123.332 162.147 123.117 162.368L121.579 164.062H124.86ZM130.412 160.85V162.012C130.412 162.568 130.357 163.044 130.246 163.438C130.139 163.828 129.982 164.146 129.777 164.39C129.572 164.634 129.326 164.813 129.04 164.927C128.757 165.041 128.439 165.098 128.088 165.098C127.808 165.098 127.548 165.062 127.307 164.99C127.069 164.919 126.854 164.806 126.662 164.653C126.47 164.5 126.306 164.303 126.169 164.062C126.035 163.818 125.931 163.527 125.856 163.188C125.785 162.85 125.749 162.458 125.749 162.012V160.85C125.749 160.29 125.804 159.818 125.915 159.434C126.026 159.046 126.184 158.732 126.389 158.491C126.594 158.247 126.838 158.07 127.121 157.959C127.408 157.848 127.727 157.793 128.078 157.793C128.361 157.793 128.622 157.829 128.859 157.9C129.1 157.969 129.315 158.078 129.504 158.228C129.696 158.377 129.859 158.573 129.992 158.813C130.129 159.051 130.233 159.339 130.305 159.678C130.376 160.013 130.412 160.404 130.412 160.85ZM129.235 162.178V160.674C129.235 160.391 129.219 160.142 129.187 159.927C129.154 159.709 129.105 159.525 129.04 159.375C128.978 159.222 128.9 159.098 128.806 159.004C128.711 158.906 128.604 158.836 128.483 158.794C128.363 158.748 128.228 158.726 128.078 158.726C127.896 158.726 127.733 158.761 127.59 158.833C127.447 158.901 127.326 159.012 127.229 159.165C127.131 159.318 127.056 159.52 127.004 159.771C126.955 160.018 126.931 160.319 126.931 160.674V162.178C126.931 162.464 126.947 162.716 126.979 162.935C127.012 163.153 127.061 163.34 127.126 163.496C127.191 163.649 127.269 163.776 127.36 163.877C127.455 163.975 127.562 164.046 127.683 164.092C127.806 164.137 127.941 164.16 128.088 164.16C128.273 164.16 128.438 164.124 128.581 164.053C128.724 163.981 128.845 163.867 128.942 163.711C129.04 163.551 129.113 163.345 129.162 163.091C129.211 162.837 129.235 162.533 129.235 162.178ZM136.228 164.062V165H131.462V164.194L133.776 161.67C134.03 161.383 134.23 161.136 134.377 160.928C134.523 160.719 134.626 160.532 134.685 160.366C134.746 160.197 134.777 160.033 134.777 159.873C134.777 159.648 134.735 159.451 134.65 159.282C134.569 159.11 134.449 158.975 134.289 158.877C134.13 158.776 133.936 158.726 133.708 158.726C133.444 158.726 133.223 158.783 133.044 158.896C132.865 159.01 132.73 159.168 132.639 159.37C132.548 159.569 132.502 159.797 132.502 160.054H131.325C131.325 159.64 131.42 159.263 131.608 158.921C131.797 158.576 132.071 158.302 132.429 158.101C132.787 157.896 133.218 157.793 133.723 157.793C134.198 157.793 134.602 157.873 134.934 158.032C135.266 158.192 135.518 158.418 135.69 158.711C135.866 159.004 135.954 159.351 135.954 159.751C135.954 159.972 135.918 160.192 135.847 160.41C135.775 160.628 135.673 160.846 135.539 161.064C135.409 161.279 135.254 161.496 135.075 161.714C134.896 161.929 134.699 162.147 134.484 162.368L132.946 164.062H136.228ZM141.911 164.062V165H137.146V164.194L139.46 161.67C139.714 161.383 139.914 161.136 140.061 160.928C140.207 160.719 140.31 160.532 140.368 160.366C140.43 160.197 140.461 160.033 140.461 159.873C140.461 159.648 140.419 159.451 140.334 159.282C140.253 159.11 140.132 158.975 139.973 158.877C139.813 158.776 139.619 158.726 139.392 158.726C139.128 158.726 138.907 158.783 138.728 158.896C138.549 159.01 138.413 159.168 138.322 159.37C138.231 159.569 138.186 159.797 138.186 160.054H137.009C137.009 159.64 137.103 159.263 137.292 158.921C137.481 158.576 137.754 158.302 138.112 158.101C138.47 157.896 138.902 157.793 139.406 157.793C139.882 157.793 140.285 157.873 140.617 158.032C140.949 158.192 141.201 158.418 141.374 158.711C141.55 159.004 141.638 159.351 141.638 159.751C141.638 159.972 141.602 160.192 141.53 160.41C141.459 160.628 141.356 160.846 141.223 161.064C141.092 161.279 140.938 161.496 140.759 161.714C140.58 161.929 140.383 162.147 140.168 162.368L138.63 164.062H141.911ZM142.946 164.414C142.946 164.232 143.008 164.079 143.132 163.955C143.256 163.828 143.423 163.765 143.635 163.765C143.85 163.765 144.017 163.828 144.138 163.955C144.261 164.079 144.323 164.232 144.323 164.414C144.323 164.596 144.261 164.749 144.138 164.873C144.017 164.997 143.85 165.059 143.635 165.059C143.423 165.059 143.256 164.997 143.132 164.873C143.008 164.749 142.946 164.596 142.946 164.414ZM150.246 160.85V162.012C150.246 162.568 150.191 163.044 150.08 163.438C149.973 163.828 149.816 164.146 149.611 164.39C149.406 164.634 149.16 164.813 148.874 164.927C148.591 165.041 148.273 165.098 147.922 165.098C147.642 165.098 147.382 165.062 147.141 164.99C146.903 164.919 146.688 164.806 146.496 164.653C146.304 164.5 146.14 164.303 146.003 164.062C145.869 163.818 145.765 163.527 145.69 163.188C145.619 162.85 145.583 162.458 145.583 162.012V160.85C145.583 160.29 145.638 159.818 145.749 159.434C145.86 159.046 146.018 158.732 146.223 158.491C146.428 158.247 146.672 158.07 146.955 157.959C147.242 157.848 147.561 157.793 147.912 157.793C148.195 157.793 148.456 157.829 148.693 157.9C148.934 157.969 149.149 158.078 149.338 158.228C149.53 158.377 149.693 158.573 149.826 158.813C149.963 159.051 150.067 159.339 150.139 159.678C150.21 160.013 150.246 160.404 150.246 160.85ZM149.069 162.178V160.674C149.069 160.391 149.053 160.142 149.021 159.927C148.988 159.709 148.939 159.525 148.874 159.375C148.812 159.222 148.734 159.098 148.64 159.004C148.545 158.906 148.438 158.836 148.317 158.794C148.197 158.748 148.062 158.726 147.912 158.726C147.73 158.726 147.567 158.761 147.424 158.833C147.281 158.901 147.16 159.012 147.062 159.165C146.965 159.318 146.89 159.52 146.838 159.771C146.789 160.018 146.765 160.319 146.765 160.674V162.178C146.765 162.464 146.781 162.716 146.813 162.935C146.846 163.153 146.895 163.34 146.96 163.496C147.025 163.649 147.103 163.776 147.194 163.877C147.289 163.975 147.396 164.046 147.517 164.092C147.64 164.137 147.775 164.16 147.922 164.16C148.107 164.16 148.272 164.124 148.415 164.053C148.558 163.981 148.679 163.867 148.776 163.711C148.874 163.551 148.947 163.345 148.996 163.091C149.045 162.837 149.069 162.533 149.069 162.178ZM156.062 164.062V165H151.296V164.194L153.61 161.67C153.864 161.383 154.064 161.136 154.211 160.928C154.357 160.719 154.46 160.532 154.519 160.366C154.58 160.197 154.611 160.033 154.611 159.873C154.611 159.648 154.569 159.451 154.484 159.282C154.403 159.11 154.283 158.975 154.123 158.877C153.964 158.776 153.77 158.726 153.542 158.726C153.278 158.726 153.057 158.783 152.878 158.896C152.699 159.01 152.564 159.168 152.473 159.37C152.382 159.569 152.336 159.797 152.336 160.054H151.159C151.159 159.64 151.254 159.263 151.442 158.921C151.631 158.576 151.905 158.302 152.263 158.101C152.621 157.896 153.052 157.793 153.557 157.793C154.032 157.793 154.436 157.873 154.768 158.032C155.1 158.192 155.352 158.418 155.524 158.711C155.7 159.004 155.788 159.351 155.788 159.751C155.788 159.972 155.752 160.192 155.681 160.41C155.609 160.628 155.507 160.846 155.373 161.064C155.243 161.279 155.088 161.496 154.909 161.714C154.73 161.929 154.533 162.147 154.318 162.368L152.78 164.062H156.062Z" fill="#3D55A5"/>
<path d="M215 147V152" stroke="#3D55A5"/>
<path d="M201.86 164.062V165H197.095V164.194L199.409 161.67C199.663 161.383 199.863 161.136 200.01 160.928C200.156 160.719 200.259 160.532 200.317 160.366C200.379 160.197 200.41 160.033 200.41 159.873C200.41 159.648 200.368 159.451 200.283 159.282C200.202 159.11 200.081 158.975 199.922 158.877C199.762 158.776 199.569 158.726 199.341 158.726C199.077 158.726 198.856 158.783 198.677 158.896C198.498 159.01 198.363 159.168 198.271 159.37C198.18 159.569 198.135 159.797 198.135 160.054H196.958C196.958 159.64 197.052 159.263 197.241 158.921C197.43 158.576 197.703 158.302 198.062 158.101C198.42 157.896 198.851 157.793 199.355 157.793C199.831 157.793 200.234 157.873 200.566 158.032C200.898 158.192 201.151 158.418 201.323 158.711C201.499 159.004 201.587 159.351 201.587 159.751C201.587 159.972 201.551 160.192 201.479 160.41C201.408 160.628 201.305 160.846 201.172 161.064C201.042 161.279 200.887 161.496 200.708 161.714C200.529 161.929 200.332 162.147 200.117 162.368L198.579 164.062H201.86ZM207.412 160.85V162.012C207.412 162.568 207.357 163.044 207.246 163.438C207.139 163.828 206.982 164.146 206.777 164.39C206.572 164.634 206.326 164.813 206.04 164.927C205.757 165.041 205.439 165.098 205.088 165.098C204.808 165.098 204.548 165.062 204.307 164.99C204.069 164.919 203.854 164.806 203.662 164.653C203.47 164.5 203.306 164.303 203.169 164.062C203.035 163.818 202.931 163.527 202.856 163.188C202.785 162.85 202.749 162.458 202.749 162.012V160.85C202.749 160.29 202.804 159.818 202.915 159.434C203.026 159.046 203.184 158.732 203.389 158.491C203.594 158.247 203.838 158.07 204.121 157.959C204.408 157.848 204.727 157.793 205.078 157.793C205.361 157.793 205.622 157.829 205.859 157.9C206.1 157.969 206.315 158.078 206.504 158.228C206.696 158.377 206.859 158.573 206.992 158.813C207.129 159.051 207.233 159.339 207.305 159.678C207.376 160.013 207.412 160.404 207.412 160.85ZM206.235 162.178V160.674C206.235 160.391 206.219 160.142 206.187 159.927C206.154 159.709 206.105 159.525 206.04 159.375C205.978 159.222 205.9 159.098 205.806 159.004C205.711 158.906 205.604 158.836 205.483 158.794C205.363 158.748 205.228 158.726 205.078 158.726C204.896 158.726 204.733 158.761 204.59 158.833C204.447 158.901 204.326 159.012 204.229 159.165C204.131 159.318 204.056 159.52 204.004 159.771C203.955 160.018 203.931 160.319 203.931 160.674V162.178C203.931 162.464 203.947 162.716 203.979 162.935C204.012 163.153 204.061 163.34 204.126 163.496C204.191 163.649 204.269 163.776 204.36 163.877C204.455 163.975 204.562 164.046 204.683 164.092C204.806 164.137 204.941 164.16 205.088 164.16C205.273 164.16 205.438 164.124 205.581 164.053C205.724 163.981 205.845 163.867 205.942 163.711C206.04 163.551 206.113 163.345 206.162 163.091C206.211 162.837 206.235 162.533 206.235 162.178ZM213.228 164.062V165H208.462V164.194L210.776 161.67C211.03 161.383 211.23 161.136 211.377 160.928C211.523 160.719 211.626 160.532 211.685 160.366C211.746 160.197 211.777 160.033 211.777 159.873C211.777 159.648 211.735 159.451 211.65 159.282C211.569 159.11 211.449 158.975 211.289 158.877C211.13 158.776 210.936 158.726 210.708 158.726C210.444 158.726 210.223 158.783 210.044 158.896C209.865 159.01 209.73 159.168 209.639 159.37C209.548 159.569 209.502 159.797 209.502 160.054H208.325C208.325 159.64 208.42 159.263 208.608 158.921C208.797 158.576 209.071 158.302 209.429 158.101C209.787 157.896 210.218 157.793 210.723 157.793C211.198 157.793 211.602 157.873 211.934 158.032C212.266 158.192 212.518 158.418 212.69 158.711C212.866 159.004 212.954 159.351 212.954 159.751C212.954 159.972 212.918 160.192 212.847 160.41C212.775 160.628 212.673 160.846 212.539 161.064C212.409 161.279 212.254 161.496 212.075 161.714C211.896 161.929 211.699 162.147 211.484 162.368L209.946 164.062H213.228ZM218.911 164.062V165H214.146V164.194L216.46 161.67C216.714 161.383 216.914 161.136 217.061 160.928C217.207 160.719 217.31 160.532 217.368 160.366C217.43 160.197 217.461 160.033 217.461 159.873C217.461 159.648 217.419 159.451 217.334 159.282C217.253 159.11 217.132 158.975 216.973 158.877C216.813 158.776 216.619 158.726 216.392 158.726C216.128 158.726 215.907 158.783 215.728 158.896C215.549 159.01 215.413 159.168 215.322 159.37C215.231 159.569 215.186 159.797 215.186 160.054H214.009C214.009 159.64 214.103 159.263 214.292 158.921C214.481 158.576 214.754 158.302 215.112 158.101C215.47 157.896 215.902 157.793 216.406 157.793C216.882 157.793 217.285 157.873 217.617 158.032C217.949 158.192 218.201 158.418 218.374 158.711C218.55 159.004 218.638 159.351 218.638 159.751C218.638 159.972 218.602 160.192 218.53 160.41C218.459 160.628 218.356 160.846 218.223 161.064C218.092 161.279 217.938 161.496 217.759 161.714C217.58 161.929 217.383 162.147 217.168 162.368L215.63 164.062H218.911ZM219.946 164.414C219.946 164.232 220.008 164.079 220.132 163.955C220.256 163.828 220.423 163.765 220.635 163.765C220.85 163.765 221.017 163.828 221.138 163.955C221.261 164.079 221.323 164.232 221.323 164.414C221.323 164.596 221.261 164.749 221.138 164.873C221.017 164.997 220.85 165.059 220.635 165.059C220.423 165.059 220.256 164.997 220.132 164.873C220.008 164.749 219.946 164.596 219.946 164.414ZM227.246 160.85V162.012C227.246 162.568 227.191 163.044 227.08 163.438C226.973 163.828 226.816 164.146 226.611 164.39C226.406 164.634 226.16 164.813 225.874 164.927C225.591 165.041 225.273 165.098 224.922 165.098C224.642 165.098 224.382 165.062 224.141 164.99C223.903 164.919 223.688 164.806 223.496 164.653C223.304 164.5 223.14 164.303 223.003 164.062C222.869 163.818 222.765 163.527 222.69 163.188C222.619 162.85 222.583 162.458 222.583 162.012V160.85C222.583 160.29 222.638 159.818 222.749 159.434C222.86 159.046 223.018 158.732 223.223 158.491C223.428 158.247 223.672 158.07 223.955 157.959C224.242 157.848 224.561 157.793 224.912 157.793C225.195 157.793 225.456 157.829 225.693 157.9C225.934 157.969 226.149 158.078 226.338 158.228C226.53 158.377 226.693 158.573 226.826 158.813C226.963 159.051 227.067 159.339 227.139 159.678C227.21 160.013 227.246 160.404 227.246 160.85ZM226.069 162.178V160.674C226.069 160.391 226.053 160.142 226.021 159.927C225.988 159.709 225.939 159.525 225.874 159.375C225.812 159.222 225.734 159.098 225.64 159.004C225.545 158.906 225.438 158.836 225.317 158.794C225.197 158.748 225.062 158.726 224.912 158.726C224.73 158.726 224.567 158.761 224.424 158.833C224.281 158.901 224.16 159.012 224.062 159.165C223.965 159.318 223.89 159.52 223.838 159.771C223.789 160.018 223.765 160.319 223.765 160.674V162.178C223.765 162.464 223.781 162.716 223.813 162.935C223.846 163.153 223.895 163.34 223.96 163.496C224.025 163.649 224.103 163.776 224.194 163.877C224.289 163.975 224.396 164.046 224.517 164.092C224.64 164.137 224.775 164.16 224.922 164.16C225.107 164.16 225.272 164.124 225.415 164.053C225.558 163.981 225.679 163.867 225.776 163.711C225.874 163.551 225.947 163.345 225.996 163.091C226.045 162.837 226.069 162.533 226.069 162.178ZM229.678 160.913H230.381C230.654 160.913 230.881 160.866 231.06 160.771C231.242 160.677 231.377 160.547 231.465 160.381C231.553 160.215 231.597 160.024 231.597 159.81C231.597 159.585 231.556 159.393 231.475 159.233C231.396 159.071 231.276 158.945 231.113 158.857C230.954 158.77 230.75 158.726 230.503 158.726C230.295 158.726 230.106 158.768 229.937 158.853C229.771 158.934 229.639 159.051 229.541 159.204C229.443 159.354 229.395 159.533 229.395 159.741H228.213C228.213 159.364 228.312 159.028 228.511 158.735C228.709 158.442 228.979 158.213 229.321 158.047C229.666 157.878 230.054 157.793 230.483 157.793C230.942 157.793 231.343 157.869 231.685 158.022C232.03 158.172 232.298 158.397 232.49 158.696C232.682 158.996 232.778 159.367 232.778 159.81C232.778 160.011 232.731 160.216 232.637 160.425C232.542 160.633 232.402 160.824 232.217 160.996C232.031 161.165 231.8 161.304 231.523 161.411C231.247 161.515 230.926 161.567 230.562 161.567H229.678V160.913ZM229.678 161.831V161.187H230.562C230.978 161.187 231.333 161.235 231.626 161.333C231.922 161.431 232.163 161.566 232.349 161.738C232.534 161.908 232.669 162.101 232.754 162.319C232.842 162.537 232.886 162.769 232.886 163.013C232.886 163.345 232.826 163.641 232.705 163.901C232.588 164.159 232.42 164.377 232.202 164.556C231.984 164.735 231.729 164.87 231.436 164.961C231.146 165.052 230.83 165.098 230.488 165.098C230.182 165.098 229.889 165.055 229.609 164.971C229.329 164.886 229.079 164.761 228.857 164.595C228.636 164.425 228.46 164.215 228.33 163.965C228.203 163.711 228.14 163.418 228.14 163.086H229.316C229.316 163.298 229.365 163.485 229.463 163.647C229.564 163.807 229.704 163.932 229.883 164.023C230.065 164.115 230.273 164.16 230.508 164.16C230.755 164.16 230.968 164.116 231.147 164.028C231.326 163.94 231.463 163.81 231.558 163.638C231.655 163.465 231.704 163.257 231.704 163.013C231.704 162.736 231.65 162.511 231.543 162.339C231.436 162.166 231.283 162.039 231.084 161.958C230.885 161.873 230.651 161.831 230.381 161.831H229.678Z" fill="#3D55A5"/>
<g clip-path="url(#clip1_56_4240)">
<path d="M24 94.5222C38 102.362 52 110.202 66 110.348C80 110.495 94 102.948 108 94.9179C122 86.8881 136 78.3754 150 83.4441C164 88.5128 178 107.163 192 102.04C206 96.9163 220 68.0196 234 62.8704C248 57.7212 262 76.3196 276 94.9179V142C262 142 248 142 234 142C220 142 206 142 192 142C178 142 164 142 150 142C136 142 122 142 108 142C94 142 80 142 66 142C52 142 38 142 24 142V94.5222Z" fill="url(#paint0_linear_56_4240)" fill-opacity="0.2"/>
<path d="M24 94.5222C38 102.362 52 110.202 66 110.348C80 110.495 94 102.948 108 94.9179C122 86.8881 136 78.3754 150 83.4441C164 88.5128 178 107.163 192 102.04C206 96.9163 220 68.0196 234 62.8704C248 57.7212 262 76.3196 276 94.9179" stroke="#3D55A5" stroke-width="2" stroke-linecap="round"/>
<path d="M24 124.641C38 112.547 52 100.452 66 102.322C80 104.191 94 120.023 108 118.131C122 116.239 136 96.6213 150 95.5019C164 94.3825 178 111.761 192 108.211C206 104.662 220 80.1841 234 73.8029C248 67.4216 262 79.1369 276 90.8521V142C262 142 248 142 234 142C220 142 206 142 192 142C178 142 164 142 150 142C136 142 122 142 108 142C94 142 80 142 66 142C52 142 38 142 24 142V124.641Z" fill="url(#paint1_linear_56_4240)" fill-opacity="0.2"/>
<path d="M24 124.641C38 112.547 52 100.452 66 102.322C80 104.191 94 120.023 108 118.131C122 116.239 136 96.6213 150 95.5019C164 94.3825 178 111.761 192 108.211C206 104.662 220 80.1841 234 73.8029C248 67.4216 262 79.1369 276 90.8521" stroke="#CF5898" stroke-width="2" stroke-linecap="round"/>
</g>
</g>
<defs>
<linearGradient id="paint0_linear_56_4240" x1="150" y1="89.5" x2="150" y2="129" gradientUnits="userSpaceOnUse">
<stop stop-color="#3D55A5"/>
<stop offset="1" stop-color="white" stop-opacity="0.4"/>
</linearGradient>
<linearGradient id="paint1_linear_56_4240" x1="150" y1="117.063" x2="150" y2="163.875" gradientUnits="userSpaceOnUse">
<stop stop-color="#CF5898"/>
<stop offset="1" stop-color="white" stop-opacity="0.4"/>
</linearGradient>
<clipPath id="clip0_56_4240">
<rect width="292" height="168" fill="white"/>
</clipPath>
<clipPath id="clip1_56_4240">
<rect width="248" height="84" fill="white" transform="translate(24 58)"/>
</clipPath>
</defs>
</svg>
