<svg width="276" height="208" viewBox="0 0 276 208" fill="none" xmlns="http://www.w3.org/2000/svg">
<g clip-path="url(#clip0_132_661)">
<path d="M1.55176 44.9131H2.25488C2.52832 44.9131 2.75456 44.8659 2.93359 44.7715C3.11589 44.6771 3.25098 44.5469 3.33887 44.3809C3.42676 44.2148 3.4707 44.0244 3.4707 43.8096C3.4707 43.585 3.43001 43.3929 3.34863 43.2334C3.27051 43.0706 3.15007 42.9453 2.9873 42.8574C2.8278 42.7695 2.62435 42.7256 2.37695 42.7256C2.16862 42.7256 1.97982 42.7679 1.81055 42.8525C1.64453 42.9339 1.5127 43.0511 1.41504 43.2041C1.31738 43.3538 1.26855 43.5329 1.26855 43.7412H0.0869141C0.0869141 43.3636 0.186198 43.0283 0.384766 42.7354C0.583333 42.4424 0.853516 42.2129 1.19531 42.0469C1.54036 41.8776 1.92773 41.793 2.35742 41.793C2.81641 41.793 3.2168 41.8695 3.55859 42.0225C3.90365 42.1722 4.1722 42.3968 4.36426 42.6963C4.55632 42.9958 4.65234 43.3669 4.65234 43.8096C4.65234 44.0114 4.60514 44.2165 4.51074 44.4248C4.41634 44.6331 4.27637 44.8236 4.09082 44.9961C3.90527 45.1654 3.67415 45.3037 3.39746 45.4111C3.12077 45.5153 2.80013 45.5674 2.43555 45.5674H1.55176V44.9131ZM1.55176 45.8311V45.1865H2.43555C2.85221 45.1865 3.20703 45.2354 3.5 45.333C3.79622 45.4307 4.03711 45.5658 4.22266 45.7383C4.4082 45.9076 4.54329 46.1012 4.62793 46.3193C4.71582 46.5374 4.75977 46.7686 4.75977 47.0127C4.75977 47.3447 4.69954 47.641 4.5791 47.9014C4.46191 48.1585 4.29427 48.3766 4.07617 48.5557C3.85807 48.7347 3.60254 48.8698 3.30957 48.9609C3.01986 49.0521 2.7041 49.0977 2.3623 49.0977C2.05632 49.0977 1.76335 49.0553 1.4834 48.9707C1.20345 48.8861 0.952799 48.7607 0.731445 48.5947C0.510091 48.4255 0.33431 48.2155 0.204102 47.9648C0.0771484 47.7109 0.0136719 47.418 0.0136719 47.0859H1.19043C1.19043 47.2975 1.23926 47.4847 1.33691 47.6475C1.43783 47.807 1.5778 47.9323 1.75684 48.0234C1.93913 48.1146 2.14746 48.1602 2.38184 48.1602C2.62923 48.1602 2.84245 48.1162 3.02148 48.0283C3.20052 47.9404 3.33724 47.8102 3.43164 47.6377C3.5293 47.4652 3.57812 47.2568 3.57812 47.0127C3.57812 46.736 3.52441 46.5114 3.41699 46.3389C3.30957 46.1663 3.15658 46.0394 2.95801 45.958C2.75944 45.8734 2.52507 45.8311 2.25488 45.8311H1.55176ZM10.4873 44.8496V46.0117C10.4873 46.5684 10.432 47.0436 10.3213 47.4375C10.2139 47.8281 10.0576 48.1455 9.85254 48.3896C9.64746 48.6338 9.40169 48.8128 9.11523 48.9268C8.83203 49.0407 8.51465 49.0977 8.16309 49.0977C7.88314 49.0977 7.62272 49.0618 7.38184 48.9902C7.14421 48.9186 6.92936 48.8063 6.7373 48.6533C6.54525 48.5003 6.38086 48.3034 6.24414 48.0625C6.11068 47.8184 6.00651 47.527 5.93164 47.1885C5.86003 46.8499 5.82422 46.4577 5.82422 46.0117V44.8496C5.82422 44.2897 5.87956 43.8177 5.99023 43.4336C6.10091 43.0462 6.25879 42.7321 6.46387 42.4912C6.66895 42.2471 6.91309 42.0697 7.19629 41.959C7.48275 41.8483 7.80176 41.793 8.15332 41.793C8.43652 41.793 8.69694 41.8288 8.93457 41.9004C9.17546 41.9688 9.3903 42.0778 9.5791 42.2275C9.77116 42.3773 9.93392 42.5726 10.0674 42.8135C10.2041 43.0511 10.3083 43.3392 10.3799 43.6777C10.4515 44.013 10.4873 44.4036 10.4873 44.8496ZM9.31055 46.1777V44.6738C9.31055 44.3906 9.29427 44.1416 9.26172 43.9268C9.22917 43.7087 9.18034 43.5247 9.11523 43.375C9.05339 43.222 8.97526 43.0983 8.88086 43.0039C8.78646 42.9062 8.67904 42.8363 8.55859 42.7939C8.43815 42.7484 8.30306 42.7256 8.15332 42.7256C7.97103 42.7256 7.80827 42.7614 7.66504 42.833C7.52181 42.9014 7.40137 43.012 7.30371 43.165C7.20605 43.318 7.13118 43.5199 7.0791 43.7705C7.03027 44.0179 7.00586 44.319 7.00586 44.6738V46.1777C7.00586 46.4642 7.02214 46.7165 7.05469 46.9346C7.08724 47.1527 7.13607 47.3398 7.20117 47.4961C7.26628 47.6491 7.3444 47.776 7.43555 47.877C7.52995 47.9746 7.63737 48.0462 7.75781 48.0918C7.88151 48.1374 8.0166 48.1602 8.16309 48.1602C8.34863 48.1602 8.51302 48.1243 8.65625 48.0527C8.79948 47.9811 8.91992 47.8672 9.01758 47.7109C9.11523 47.5514 9.18848 47.3447 9.2373 47.0908C9.28613 46.8369 9.31055 46.5326 9.31055 46.1777Z" fill="#3D55A5"/>
<path d="M15 46.0001L20 45.9999" stroke="#3D55A5"/>
<path d="M20 46H272" stroke="#3D55A5" stroke-opacity="0.1"/>
<path d="M4.93555 67.4911V68.4286H0.169922V67.6229L2.48438 65.0985C2.73828 64.812 2.93848 64.5646 3.08496 64.3563C3.23145 64.148 3.33398 63.9608 3.39258 63.7948C3.45443 63.6255 3.48535 63.4611 3.48535 63.3016C3.48535 63.077 3.44303 62.8801 3.3584 62.7108C3.27702 62.5383 3.15658 62.4032 2.99707 62.3055C2.83757 62.2046 2.64388 62.1542 2.41602 62.1542C2.15234 62.1542 1.93099 62.2111 1.75195 62.3251C1.57292 62.439 1.43783 62.5969 1.34668 62.7987C1.25553 62.9973 1.20996 63.2251 1.20996 63.4823H0.0332031C0.0332031 63.0689 0.127604 62.6913 0.316406 62.3495C0.505208 62.0044 0.778646 61.731 1.13672 61.5292C1.49479 61.3241 1.92611 61.2215 2.43066 61.2215C2.90592 61.2215 3.30957 61.3013 3.6416 61.4608C3.97363 61.6203 4.22591 61.8465 4.39844 62.1395C4.57422 62.4325 4.66211 62.7792 4.66211 63.1796C4.66211 63.4009 4.6263 63.6206 4.55469 63.8387C4.48307 64.0568 4.38053 64.2749 4.24707 64.493C4.11686 64.7079 3.96224 64.9243 3.7832 65.1424C3.60417 65.3573 3.40723 65.5754 3.19238 65.7967L1.6543 67.4911H4.93555ZM7.08887 65.1229L6.15137 64.8934L6.53711 61.3192H10.3701V62.3153H7.51367L7.31836 64.0585C7.42904 63.9934 7.58203 63.9299 7.77734 63.868C7.97266 63.8029 8.19564 63.7704 8.44629 63.7704C8.78158 63.7704 9.08105 63.8257 9.34473 63.9364C9.61165 64.0438 9.83789 64.2017 10.0234 64.41C10.209 64.6151 10.3506 64.8657 10.4482 65.162C10.5459 65.4549 10.5947 65.7853 10.5947 66.1532C10.5947 66.482 10.5459 66.7896 10.4482 67.076C10.3538 67.3625 10.2106 67.6148 10.0186 67.8329C9.8265 68.051 9.58398 68.2219 9.29102 68.3456C9.0013 68.466 8.65788 68.5262 8.26074 68.5262C7.96452 68.5262 7.67969 68.4839 7.40625 68.3993C7.13607 68.3114 6.89355 68.1828 6.67871 68.0135C6.46387 67.841 6.29134 67.6294 6.16113 67.3788C6.03092 67.1249 5.95605 66.8335 5.93652 66.5047H7.08887C7.11816 66.7359 7.18164 66.9328 7.2793 67.0956C7.38021 67.2551 7.51367 67.3771 7.67969 67.4618C7.8457 67.5464 8.03776 67.5887 8.25586 67.5887C8.45443 67.5887 8.62533 67.5546 8.76855 67.4862C8.91178 67.4146 9.0306 67.3137 9.125 67.1835C9.22266 67.05 9.29427 66.8937 9.33984 66.7147C9.38867 66.5357 9.41309 66.3371 9.41309 66.119C9.41309 65.9107 9.38542 65.7202 9.33008 65.5477C9.27799 65.3752 9.19824 65.2254 9.09082 65.0985C8.98665 64.9715 8.85482 64.8739 8.69531 64.8055C8.53581 64.7339 8.35189 64.6981 8.14355 64.6981C7.86361 64.6981 7.64876 64.7388 7.49902 64.8202C7.35254 64.9016 7.21582 65.0025 7.08887 65.1229Z" fill="#3D55A5"/>
<path d="M15 65.4287L20 65.4285" stroke="#3D55A5"/>
<path d="M20 65.4286H272" stroke="#3D55A5" stroke-opacity="0.1"/>
<path d="M4.93555 86.9196V87.8571H0.169922V87.0515L2.48438 84.5271C2.73828 84.2406 2.93848 83.9932 3.08496 83.7849C3.23145 83.5765 3.33398 83.3894 3.39258 83.2234C3.45443 83.0541 3.48535 82.8897 3.48535 82.7302C3.48535 82.5056 3.44303 82.3086 3.3584 82.1394C3.27702 81.9668 3.15658 81.8318 2.99707 81.7341C2.83757 81.6332 2.64388 81.5827 2.41602 81.5827C2.15234 81.5827 1.93099 81.6397 1.75195 81.7536C1.57292 81.8676 1.43783 82.0254 1.34668 82.2273C1.25553 82.4258 1.20996 82.6537 1.20996 82.9109H0.0332031C0.0332031 82.4974 0.127604 82.1198 0.316406 81.778C0.505208 81.433 0.778646 81.1596 1.13672 80.9577C1.49479 80.7527 1.92611 80.6501 2.43066 80.6501C2.90592 80.6501 3.30957 80.7299 3.6416 80.8894C3.97363 81.0489 4.22591 81.2751 4.39844 81.5681C4.57422 81.8611 4.66211 82.2077 4.66211 82.6081C4.66211 82.8295 4.6263 83.0492 4.55469 83.2673C4.48307 83.4854 4.38053 83.7035 4.24707 83.9216C4.11686 84.1364 3.96224 84.3529 3.7832 84.571C3.60417 84.7859 3.40723 85.004 3.19238 85.2253L1.6543 86.9196H4.93555ZM10.4873 83.7068V84.8689C10.4873 85.4255 10.432 85.9008 10.3213 86.2946C10.2139 86.6853 10.0576 87.0027 9.85254 87.2468C9.64746 87.4909 9.40169 87.67 9.11523 87.7839C8.83203 87.8978 8.51465 87.9548 8.16309 87.9548C7.88314 87.9548 7.62272 87.919 7.38184 87.8474C7.14421 87.7758 6.92936 87.6635 6.7373 87.5105C6.54525 87.3575 6.38086 87.1605 6.24414 86.9196C6.11068 86.6755 6.00651 86.3842 5.93164 86.0456C5.86003 85.7071 5.82422 85.3148 5.82422 84.8689V83.7068C5.82422 83.1469 5.87956 82.6749 5.99023 82.2907C6.10091 81.9034 6.25879 81.5892 6.46387 81.3484C6.66895 81.1042 6.91309 80.9268 7.19629 80.8161C7.48275 80.7055 7.80176 80.6501 8.15332 80.6501C8.43652 80.6501 8.69694 80.6859 8.93457 80.7575C9.17546 80.8259 9.3903 80.9349 9.5791 81.0847C9.77116 81.2344 9.93392 81.4297 10.0674 81.6706C10.2041 81.9083 10.3083 82.1963 10.3799 82.5349C10.4515 82.8702 10.4873 83.2608 10.4873 83.7068ZM9.31055 85.0349V83.531C9.31055 83.2478 9.29427 82.9987 9.26172 82.7839C9.22917 82.5658 9.18034 82.3819 9.11523 82.2321C9.05339 82.0792 8.97526 81.9555 8.88086 81.8611C8.78646 81.7634 8.67904 81.6934 8.55859 81.6511C8.43815 81.6055 8.30306 81.5827 8.15332 81.5827C7.97103 81.5827 7.80827 81.6185 7.66504 81.6902C7.52181 81.7585 7.40137 81.8692 7.30371 82.0222C7.20605 82.1752 7.13118 82.377 7.0791 82.6277C7.03027 82.8751 7.00586 83.1762 7.00586 83.531V85.0349C7.00586 85.3213 7.02214 85.5736 7.05469 85.7917C7.08724 86.0098 7.13607 86.197 7.20117 86.3532C7.26628 86.5062 7.3444 86.6332 7.43555 86.7341C7.52995 86.8318 7.63737 86.9034 7.75781 86.9489C7.88151 86.9945 8.0166 87.0173 8.16309 87.0173C8.34863 87.0173 8.51302 86.9815 8.65625 86.9099C8.79948 86.8383 8.91992 86.7243 9.01758 86.5681C9.11523 86.4086 9.18848 86.2019 9.2373 85.948C9.28613 85.6941 9.31055 85.3897 9.31055 85.0349Z" fill="#3D55A5"/>
<path d="M15 84.8573L20 84.857" stroke="#3D55A5"/>
<path d="M20 84.8571H272" stroke="#3D55A5" stroke-opacity="0.1"/>
<path d="M3.38281 100.152V107.286H2.20605V101.548L0.462891 102.139V101.168L3.24121 100.152H3.38281ZM7.08887 103.98L6.15137 103.751L6.53711 100.176H10.3701V101.172H7.51367L7.31836 102.916C7.42904 102.85 7.58203 102.787 7.77734 102.725C7.97266 102.66 8.19564 102.628 8.44629 102.628C8.78158 102.628 9.08105 102.683 9.34473 102.794C9.61165 102.901 9.83789 103.059 10.0234 103.267C10.209 103.472 10.3506 103.723 10.4482 104.019C10.5459 104.312 10.5947 104.642 10.5947 105.01C10.5947 105.339 10.5459 105.647 10.4482 105.933C10.3538 106.22 10.2106 106.472 10.0186 106.69C9.8265 106.908 9.58398 107.079 9.29102 107.203C9.0013 107.323 8.65788 107.383 8.26074 107.383C7.96452 107.383 7.67969 107.341 7.40625 107.256C7.13607 107.169 6.89355 107.04 6.67871 106.871C6.46387 106.698 6.29134 106.487 6.16113 106.236C6.03092 105.982 5.95605 105.691 5.93652 105.362H7.08887C7.11816 105.593 7.18164 105.79 7.2793 105.953C7.38021 106.112 7.51367 106.234 7.67969 106.319C7.8457 106.404 8.03776 106.446 8.25586 106.446C8.45443 106.446 8.62533 106.412 8.76855 106.343C8.91178 106.272 9.0306 106.171 9.125 106.041C9.22266 105.907 9.29427 105.751 9.33984 105.572C9.38867 105.393 9.41309 105.194 9.41309 104.976C9.41309 104.768 9.38542 104.577 9.33008 104.405C9.27799 104.232 9.19824 104.083 9.09082 103.956C8.98665 103.829 8.85482 103.731 8.69531 103.663C8.53581 103.591 8.35189 103.555 8.14355 103.555C7.86361 103.555 7.64876 103.596 7.49902 103.677C7.35254 103.759 7.21582 103.86 7.08887 103.98Z" fill="#3D55A5"/>
<path d="M15 104.286L20 104.286" stroke="#3D55A5"/>
<path d="M20 104.286H272" stroke="#3D55A5" stroke-opacity="0.1"/>
<path d="M3.38281 119.581V126.714H2.20605V120.977L0.462891 121.568V120.596L3.24121 119.581H3.38281ZM10.4873 122.564V123.726C10.4873 124.283 10.432 124.758 10.3213 125.152C10.2139 125.542 10.0576 125.86 9.85254 126.104C9.64746 126.348 9.40169 126.527 9.11523 126.641C8.83203 126.755 8.51465 126.812 8.16309 126.812C7.88314 126.812 7.62272 126.776 7.38184 126.705C7.14421 126.633 6.92936 126.521 6.7373 126.368C6.54525 126.215 6.38086 126.018 6.24414 125.777C6.11068 125.533 6.00651 125.241 5.93164 124.903C5.86003 124.564 5.82422 124.172 5.82422 123.726V122.564C5.82422 122.004 5.87956 121.532 5.99023 121.148C6.10091 120.761 6.25879 120.446 6.46387 120.206C6.66895 119.961 6.91309 119.784 7.19629 119.673C7.48275 119.563 7.80176 119.507 8.15332 119.507C8.43652 119.507 8.69694 119.543 8.93457 119.615C9.17546 119.683 9.3903 119.792 9.5791 119.942C9.77116 120.092 9.93392 120.287 10.0674 120.528C10.2041 120.765 10.3083 121.053 10.3799 121.392C10.4515 121.727 10.4873 122.118 10.4873 122.564ZM9.31055 123.892V122.388C9.31055 122.105 9.29427 121.856 9.26172 121.641C9.22917 121.423 9.18034 121.239 9.11523 121.089C9.05339 120.936 8.97526 120.813 8.88086 120.718C8.78646 120.621 8.67904 120.551 8.55859 120.508C8.43815 120.463 8.30306 120.44 8.15332 120.44C7.97103 120.44 7.80827 120.476 7.66504 120.547C7.52181 120.616 7.40137 120.726 7.30371 120.879C7.20605 121.032 7.13118 121.234 7.0791 121.485C7.03027 121.732 7.00586 122.033 7.00586 122.388V123.892C7.00586 124.178 7.02214 124.431 7.05469 124.649C7.08724 124.867 7.13607 125.054 7.20117 125.21C7.26628 125.363 7.3444 125.49 7.43555 125.591C7.52995 125.689 7.63737 125.761 7.75781 125.806C7.88151 125.852 8.0166 125.874 8.16309 125.874C8.34863 125.874 8.51302 125.839 8.65625 125.767C8.79948 125.695 8.91992 125.581 9.01758 125.425C9.11523 125.266 9.18848 125.059 9.2373 124.805C9.28613 124.551 9.31055 124.247 9.31055 123.892Z" fill="#3D55A5"/>
<path d="M15 123.714L20 123.714" stroke="#3D55A5"/>
<path d="M20 123.714H272" stroke="#3D55A5" stroke-opacity="0.1"/>
<path d="M7.08887 142.837L6.15137 142.608L6.53711 139.033H10.3701V140.03H7.51367L7.31836 141.773C7.42904 141.708 7.58203 141.644 7.77734 141.582C7.97266 141.517 8.19564 141.485 8.44629 141.485C8.78158 141.485 9.08105 141.54 9.34473 141.651C9.61165 141.758 9.83789 141.916 10.0234 142.124C10.209 142.329 10.3506 142.58 10.4482 142.876C10.5459 143.169 10.5947 143.5 10.5947 143.867C10.5947 144.196 10.5459 144.504 10.4482 144.79C10.3538 145.077 10.2106 145.329 10.0186 145.547C9.8265 145.765 9.58398 145.936 9.29102 146.06C9.0013 146.18 8.65788 146.241 8.26074 146.241C7.96452 146.241 7.67969 146.198 7.40625 146.114C7.13607 146.026 6.89355 145.897 6.67871 145.728C6.46387 145.555 6.29134 145.344 6.16113 145.093C6.03092 144.839 5.95605 144.548 5.93652 144.219H7.08887C7.11816 144.45 7.18164 144.647 7.2793 144.81C7.38021 144.969 7.51367 145.091 7.67969 145.176C7.8457 145.261 8.03776 145.303 8.25586 145.303C8.45443 145.303 8.62533 145.269 8.76855 145.2C8.91178 145.129 9.0306 145.028 9.125 144.898C9.22266 144.764 9.29427 144.608 9.33984 144.429C9.38867 144.25 9.41309 144.051 9.41309 143.833C9.41309 143.625 9.38542 143.435 9.33008 143.262C9.27799 143.089 9.19824 142.94 9.09082 142.813C8.98665 142.686 8.85482 142.588 8.69531 142.52C8.53581 142.448 8.35189 142.412 8.14355 142.412C7.86361 142.412 7.64876 142.453 7.49902 142.534C7.35254 142.616 7.21582 142.717 7.08887 142.837Z" fill="#3D55A5"/>
<path d="M15 143.143L20 143.143" stroke="#3D55A5"/>
<path d="M20 143.143H272" stroke="#3D55A5" stroke-opacity="0.1"/>
<path d="M10.4873 161.421V162.583C10.4873 163.14 10.432 163.615 10.3213 164.009C10.2139 164.4 10.0576 164.717 9.85254 164.961C9.64746 165.205 9.40169 165.384 9.11523 165.498C8.83203 165.612 8.51465 165.669 8.16309 165.669C7.88314 165.669 7.62272 165.633 7.38184 165.562C7.14421 165.49 6.92936 165.378 6.7373 165.225C6.54525 165.072 6.38086 164.875 6.24414 164.634C6.11068 164.39 6.00651 164.098 5.93164 163.76C5.86003 163.421 5.82422 163.029 5.82422 162.583V161.421C5.82422 160.861 5.87956 160.389 5.99023 160.005C6.10091 159.618 6.25879 159.304 6.46387 159.063C6.66895 158.819 6.91309 158.641 7.19629 158.53C7.48275 158.42 7.80176 158.364 8.15332 158.364C8.43652 158.364 8.69694 158.4 8.93457 158.472C9.17546 158.54 9.3903 158.649 9.5791 158.799C9.77116 158.949 9.93392 159.144 10.0674 159.385C10.2041 159.623 10.3083 159.911 10.3799 160.249C10.4515 160.584 10.4873 160.975 10.4873 161.421ZM9.31055 162.749V161.245C9.31055 160.962 9.29427 160.713 9.26172 160.498C9.22917 160.28 9.18034 160.096 9.11523 159.946C9.05339 159.793 8.97526 159.67 8.88086 159.575C8.78646 159.478 8.67904 159.408 8.55859 159.365C8.43815 159.32 8.30306 159.297 8.15332 159.297C7.97103 159.297 7.80827 159.333 7.66504 159.404C7.52181 159.473 7.40137 159.583 7.30371 159.736C7.20605 159.889 7.13118 160.091 7.0791 160.342C7.03027 160.589 7.00586 160.89 7.00586 161.245V162.749C7.00586 163.036 7.02214 163.288 7.05469 163.506C7.08724 163.724 7.13607 163.911 7.20117 164.068C7.26628 164.221 7.3444 164.347 7.43555 164.448C7.52995 164.546 7.63737 164.618 7.75781 164.663C7.88151 164.709 8.0166 164.732 8.16309 164.732C8.34863 164.732 8.51302 164.696 8.65625 164.624C8.79948 164.553 8.91992 164.439 9.01758 164.282C9.11523 164.123 9.18848 163.916 9.2373 163.662C9.28613 163.408 9.31055 163.104 9.31055 162.749Z" fill="#3D55A5"/>
<path d="M15 162.572L20 162.571" stroke="#3D55A5"/>
<path d="M20 162.571H272" stroke="#3D55A5" stroke-opacity="0.1"/>
<path d="M4.8916 181.494V182.432H2.30859V181.494H4.8916ZM7.08887 181.694L6.15137 181.465L6.53711 177.891H10.3701V178.887H7.51367L7.31836 180.63C7.42904 180.565 7.58203 180.501 7.77734 180.439C7.97266 180.374 8.19564 180.342 8.44629 180.342C8.78158 180.342 9.08105 180.397 9.34473 180.508C9.61165 180.615 9.83789 180.773 10.0234 180.981C10.209 181.187 10.3506 181.437 10.4482 181.733C10.5459 182.026 10.5947 182.357 10.5947 182.725C10.5947 183.053 10.5459 183.361 10.4482 183.647C10.3538 183.934 10.2106 184.186 10.0186 184.404C9.8265 184.622 9.58398 184.793 9.29102 184.917C9.0013 185.037 8.65788 185.098 8.26074 185.098C7.96452 185.098 7.67969 185.055 7.40625 184.971C7.13607 184.883 6.89355 184.754 6.67871 184.585C6.46387 184.412 6.29134 184.201 6.16113 183.95C6.03092 183.696 5.95605 183.405 5.93652 183.076H7.08887C7.11816 183.307 7.18164 183.504 7.2793 183.667C7.38021 183.826 7.51367 183.949 7.67969 184.033C7.8457 184.118 8.03776 184.16 8.25586 184.16C8.45443 184.16 8.62533 184.126 8.76855 184.058C8.91178 183.986 9.0306 183.885 9.125 183.755C9.22266 183.621 9.29427 183.465 9.33984 183.286C9.38867 183.107 9.41309 182.909 9.41309 182.69C9.41309 182.482 9.38542 182.292 9.33008 182.119C9.27799 181.947 9.19824 181.797 9.09082 181.67C8.98665 181.543 8.85482 181.445 8.69531 181.377C8.53581 181.305 8.35189 181.27 8.14355 181.27C7.86361 181.27 7.64876 181.31 7.49902 181.392C7.35254 181.473 7.21582 181.574 7.08887 181.694Z" fill="#3D55A5"/>
<path d="M15 182L20 182" stroke="#3D55A5"/>
<path d="M20 182H272" stroke="#3D55A5" stroke-opacity="0.1"/>
<path d="M61 187V192" stroke="#3D55A5"/>
<path d="M47.8604 204.062V205H43.0947V204.194L45.4092 201.67C45.6631 201.383 45.8633 201.136 46.0098 200.928C46.1562 200.719 46.2588 200.532 46.3174 200.366C46.3792 200.197 46.4102 200.033 46.4102 199.873C46.4102 199.648 46.3678 199.451 46.2832 199.282C46.2018 199.11 46.0814 198.975 45.9219 198.877C45.7624 198.776 45.5687 198.726 45.3408 198.726C45.0771 198.726 44.8558 198.783 44.6768 198.896C44.4977 199.01 44.3626 199.168 44.2715 199.37C44.1803 199.569 44.1348 199.797 44.1348 200.054H42.958C42.958 199.64 43.0524 199.263 43.2412 198.921C43.43 198.576 43.7035 198.302 44.0615 198.101C44.4196 197.896 44.8509 197.793 45.3555 197.793C45.8307 197.793 46.2344 197.873 46.5664 198.032C46.8984 198.192 47.1507 198.418 47.3232 198.711C47.499 199.004 47.5869 199.351 47.5869 199.751C47.5869 199.972 47.5511 200.192 47.4795 200.41C47.4079 200.628 47.3053 200.846 47.1719 201.064C47.0417 201.279 46.887 201.496 46.708 201.714C46.529 201.929 46.332 202.147 46.1172 202.368L44.5791 204.062H47.8604ZM53.4121 200.85V202.012C53.4121 202.568 53.3568 203.044 53.2461 203.438C53.1387 203.828 52.9824 204.146 52.7773 204.39C52.5723 204.634 52.3265 204.813 52.04 204.927C51.7568 205.041 51.4395 205.098 51.0879 205.098C50.8079 205.098 50.5475 205.062 50.3066 204.99C50.069 204.919 49.8542 204.806 49.6621 204.653C49.4701 204.5 49.3057 204.303 49.1689 204.062C49.0355 203.818 48.9313 203.527 48.8564 203.188C48.7848 202.85 48.749 202.458 48.749 202.012V200.85C48.749 200.29 48.8044 199.818 48.915 199.434C49.0257 199.046 49.1836 198.732 49.3887 198.491C49.5938 198.247 49.8379 198.07 50.1211 197.959C50.4076 197.848 50.7266 197.793 51.0781 197.793C51.3613 197.793 51.6217 197.829 51.8594 197.9C52.1003 197.969 52.3151 198.078 52.5039 198.228C52.696 198.377 52.8587 198.573 52.9922 198.813C53.1289 199.051 53.2331 199.339 53.3047 199.678C53.3763 200.013 53.4121 200.404 53.4121 200.85ZM52.2354 202.178V200.674C52.2354 200.391 52.2191 200.142 52.1865 199.927C52.154 199.709 52.1051 199.525 52.04 199.375C51.9782 199.222 51.9001 199.098 51.8057 199.004C51.7113 198.906 51.6038 198.836 51.4834 198.794C51.363 198.748 51.2279 198.726 51.0781 198.726C50.8958 198.726 50.7331 198.761 50.5898 198.833C50.4466 198.901 50.3262 199.012 50.2285 199.165C50.1309 199.318 50.056 199.52 50.0039 199.771C49.9551 200.018 49.9307 200.319 49.9307 200.674V202.178C49.9307 202.464 49.9469 202.716 49.9795 202.935C50.012 203.153 50.0609 203.34 50.126 203.496C50.1911 203.649 50.2692 203.776 50.3604 203.877C50.4548 203.975 50.5622 204.046 50.6826 204.092C50.8063 204.137 50.9414 204.16 51.0879 204.16C51.2734 204.16 51.4378 204.124 51.5811 204.053C51.7243 203.981 51.8447 203.867 51.9424 203.711C52.04 203.551 52.1133 203.345 52.1621 203.091C52.2109 202.837 52.2354 202.533 52.2354 202.178ZM59.2275 204.062V205H54.4619V204.194L56.7764 201.67C57.0303 201.383 57.2305 201.136 57.377 200.928C57.5234 200.719 57.626 200.532 57.6846 200.366C57.7464 200.197 57.7773 200.033 57.7773 199.873C57.7773 199.648 57.735 199.451 57.6504 199.282C57.569 199.11 57.4486 198.975 57.2891 198.877C57.1296 198.776 56.9359 198.726 56.708 198.726C56.4443 198.726 56.223 198.783 56.0439 198.896C55.8649 199.01 55.7298 199.168 55.6387 199.37C55.5475 199.569 55.502 199.797 55.502 200.054H54.3252C54.3252 199.64 54.4196 199.263 54.6084 198.921C54.7972 198.576 55.0706 198.302 55.4287 198.101C55.7868 197.896 56.2181 197.793 56.7227 197.793C57.1979 197.793 57.6016 197.873 57.9336 198.032C58.2656 198.192 58.5179 198.418 58.6904 198.711C58.8662 199.004 58.9541 199.351 58.9541 199.751C58.9541 199.972 58.9183 200.192 58.8467 200.41C58.7751 200.628 58.6725 200.846 58.5391 201.064C58.4089 201.279 58.2542 201.496 58.0752 201.714C57.8962 201.929 57.6992 202.147 57.4844 202.368L55.9463 204.062H59.2275ZM64.9111 204.062V205H60.1455V204.194L62.46 201.67C62.7139 201.383 62.9141 201.136 63.0605 200.928C63.207 200.719 63.3096 200.532 63.3682 200.366C63.43 200.197 63.4609 200.033 63.4609 199.873C63.4609 199.648 63.4186 199.451 63.334 199.282C63.2526 199.11 63.1322 198.975 62.9727 198.877C62.8132 198.776 62.6195 198.726 62.3916 198.726C62.1279 198.726 61.9066 198.783 61.7275 198.896C61.5485 199.01 61.4134 199.168 61.3223 199.37C61.2311 199.569 61.1855 199.797 61.1855 200.054H60.0088C60.0088 199.64 60.1032 199.263 60.292 198.921C60.4808 198.576 60.7542 198.302 61.1123 198.101C61.4704 197.896 61.9017 197.793 62.4062 197.793C62.8815 197.793 63.2852 197.873 63.6172 198.032C63.9492 198.192 64.2015 198.418 64.374 198.711C64.5498 199.004 64.6377 199.351 64.6377 199.751C64.6377 199.972 64.6019 200.192 64.5303 200.41C64.4587 200.628 64.3561 200.846 64.2227 201.064C64.0924 201.279 63.9378 201.496 63.7588 201.714C63.5798 201.929 63.3828 202.147 63.168 202.368L61.6299 204.062H64.9111ZM65.9463 204.414C65.9463 204.232 66.0081 204.079 66.1318 203.955C66.2555 203.828 66.4232 203.765 66.6348 203.765C66.8496 203.765 67.0173 203.828 67.1377 203.955C67.2614 204.079 67.3232 204.232 67.3232 204.414C67.3232 204.596 67.2614 204.749 67.1377 204.873C67.0173 204.997 66.8496 205.059 66.6348 205.059C66.4232 205.059 66.2555 204.997 66.1318 204.873C66.0081 204.749 65.9463 204.596 65.9463 204.414ZM73.2461 200.85V202.012C73.2461 202.568 73.1908 203.044 73.0801 203.438C72.9727 203.828 72.8164 204.146 72.6113 204.39C72.4062 204.634 72.1605 204.813 71.874 204.927C71.5908 205.041 71.2734 205.098 70.9219 205.098C70.6419 205.098 70.3815 205.062 70.1406 204.99C69.903 204.919 69.6882 204.806 69.4961 204.653C69.304 204.5 69.1396 204.303 69.0029 204.062C68.8695 203.818 68.7653 203.527 68.6904 203.188C68.6188 202.85 68.583 202.458 68.583 202.012V200.85C68.583 200.29 68.6383 199.818 68.749 199.434C68.8597 199.046 69.0176 198.732 69.2227 198.491C69.4277 198.247 69.6719 198.07 69.9551 197.959C70.2415 197.848 70.5605 197.793 70.9121 197.793C71.1953 197.793 71.4557 197.829 71.6934 197.9C71.9342 197.969 72.1491 198.078 72.3379 198.228C72.5299 198.377 72.6927 198.573 72.8262 198.813C72.9629 199.051 73.0671 199.339 73.1387 199.678C73.2103 200.013 73.2461 200.404 73.2461 200.85ZM72.0693 202.178V200.674C72.0693 200.391 72.0531 200.142 72.0205 199.927C71.988 199.709 71.9391 199.525 71.874 199.375C71.8122 199.222 71.734 199.098 71.6396 199.004C71.5452 198.906 71.4378 198.836 71.3174 198.794C71.1969 198.748 71.0618 198.726 70.9121 198.726C70.7298 198.726 70.5671 198.761 70.4238 198.833C70.2806 198.901 70.1602 199.012 70.0625 199.165C69.9648 199.318 69.89 199.52 69.8379 199.771C69.7891 200.018 69.7646 200.319 69.7646 200.674V202.178C69.7646 202.464 69.7809 202.716 69.8135 202.935C69.846 203.153 69.8949 203.34 69.96 203.496C70.0251 203.649 70.1032 203.776 70.1943 203.877C70.2887 203.975 70.3962 204.046 70.5166 204.092C70.6403 204.137 70.7754 204.16 70.9219 204.16C71.1074 204.16 71.2718 204.124 71.415 204.053C71.5583 203.981 71.6787 203.867 71.7764 203.711C71.874 203.551 71.9473 203.345 71.9961 203.091C72.0449 202.837 72.0693 202.533 72.0693 202.178ZM77.5088 197.866V205H76.332V199.263L74.5889 199.854V198.882L77.3672 197.866H77.5088Z" fill="#3D55A5"/>
<path d="M138 187V192" stroke="#3D55A5"/>
<path d="M124.86 204.062V205H120.095V204.194L122.409 201.67C122.663 201.383 122.863 201.136 123.01 200.928C123.156 200.719 123.259 200.532 123.317 200.366C123.379 200.197 123.41 200.033 123.41 199.873C123.41 199.648 123.368 199.451 123.283 199.282C123.202 199.11 123.081 198.975 122.922 198.877C122.762 198.776 122.569 198.726 122.341 198.726C122.077 198.726 121.856 198.783 121.677 198.896C121.498 199.01 121.363 199.168 121.271 199.37C121.18 199.569 121.135 199.797 121.135 200.054H119.958C119.958 199.64 120.052 199.263 120.241 198.921C120.43 198.576 120.703 198.302 121.062 198.101C121.42 197.896 121.851 197.793 122.355 197.793C122.831 197.793 123.234 197.873 123.566 198.032C123.898 198.192 124.151 198.418 124.323 198.711C124.499 199.004 124.587 199.351 124.587 199.751C124.587 199.972 124.551 200.192 124.479 200.41C124.408 200.628 124.305 200.846 124.172 201.064C124.042 201.279 123.887 201.496 123.708 201.714C123.529 201.929 123.332 202.147 123.117 202.368L121.579 204.062H124.86ZM130.412 200.85V202.012C130.412 202.568 130.357 203.044 130.246 203.438C130.139 203.828 129.982 204.146 129.777 204.39C129.572 204.634 129.326 204.813 129.04 204.927C128.757 205.041 128.439 205.098 128.088 205.098C127.808 205.098 127.548 205.062 127.307 204.99C127.069 204.919 126.854 204.806 126.662 204.653C126.47 204.5 126.306 204.303 126.169 204.062C126.035 203.818 125.931 203.527 125.856 203.188C125.785 202.85 125.749 202.458 125.749 202.012V200.85C125.749 200.29 125.804 199.818 125.915 199.434C126.026 199.046 126.184 198.732 126.389 198.491C126.594 198.247 126.838 198.07 127.121 197.959C127.408 197.848 127.727 197.793 128.078 197.793C128.361 197.793 128.622 197.829 128.859 197.9C129.1 197.969 129.315 198.078 129.504 198.228C129.696 198.377 129.859 198.573 129.992 198.813C130.129 199.051 130.233 199.339 130.305 199.678C130.376 200.013 130.412 200.404 130.412 200.85ZM129.235 202.178V200.674C129.235 200.391 129.219 200.142 129.187 199.927C129.154 199.709 129.105 199.525 129.04 199.375C128.978 199.222 128.9 199.098 128.806 199.004C128.711 198.906 128.604 198.836 128.483 198.794C128.363 198.748 128.228 198.726 128.078 198.726C127.896 198.726 127.733 198.761 127.59 198.833C127.447 198.901 127.326 199.012 127.229 199.165C127.131 199.318 127.056 199.52 127.004 199.771C126.955 200.018 126.931 200.319 126.931 200.674V202.178C126.931 202.464 126.947 202.716 126.979 202.935C127.012 203.153 127.061 203.34 127.126 203.496C127.191 203.649 127.269 203.776 127.36 203.877C127.455 203.975 127.562 204.046 127.683 204.092C127.806 204.137 127.941 204.16 128.088 204.16C128.273 204.16 128.438 204.124 128.581 204.053C128.724 203.981 128.845 203.867 128.942 203.711C129.04 203.551 129.113 203.345 129.162 203.091C129.211 202.837 129.235 202.533 129.235 202.178ZM136.228 204.062V205H131.462V204.194L133.776 201.67C134.03 201.383 134.23 201.136 134.377 200.928C134.523 200.719 134.626 200.532 134.685 200.366C134.746 200.197 134.777 200.033 134.777 199.873C134.777 199.648 134.735 199.451 134.65 199.282C134.569 199.11 134.449 198.975 134.289 198.877C134.13 198.776 133.936 198.726 133.708 198.726C133.444 198.726 133.223 198.783 133.044 198.896C132.865 199.01 132.73 199.168 132.639 199.37C132.548 199.569 132.502 199.797 132.502 200.054H131.325C131.325 199.64 131.42 199.263 131.608 198.921C131.797 198.576 132.071 198.302 132.429 198.101C132.787 197.896 133.218 197.793 133.723 197.793C134.198 197.793 134.602 197.873 134.934 198.032C135.266 198.192 135.518 198.418 135.69 198.711C135.866 199.004 135.954 199.351 135.954 199.751C135.954 199.972 135.918 200.192 135.847 200.41C135.775 200.628 135.673 200.846 135.539 201.064C135.409 201.279 135.254 201.496 135.075 201.714C134.896 201.929 134.699 202.147 134.484 202.368L132.946 204.062H136.228ZM141.911 204.062V205H137.146V204.194L139.46 201.67C139.714 201.383 139.914 201.136 140.061 200.928C140.207 200.719 140.31 200.532 140.368 200.366C140.43 200.197 140.461 200.033 140.461 199.873C140.461 199.648 140.419 199.451 140.334 199.282C140.253 199.11 140.132 198.975 139.973 198.877C139.813 198.776 139.619 198.726 139.392 198.726C139.128 198.726 138.907 198.783 138.728 198.896C138.549 199.01 138.413 199.168 138.322 199.37C138.231 199.569 138.186 199.797 138.186 200.054H137.009C137.009 199.64 137.103 199.263 137.292 198.921C137.481 198.576 137.754 198.302 138.112 198.101C138.47 197.896 138.902 197.793 139.406 197.793C139.882 197.793 140.285 197.873 140.617 198.032C140.949 198.192 141.201 198.418 141.374 198.711C141.55 199.004 141.638 199.351 141.638 199.751C141.638 199.972 141.602 200.192 141.53 200.41C141.459 200.628 141.356 200.846 141.223 201.064C141.092 201.279 140.938 201.496 140.759 201.714C140.58 201.929 140.383 202.147 140.168 202.368L138.63 204.062H141.911ZM142.946 204.414C142.946 204.232 143.008 204.079 143.132 203.955C143.256 203.828 143.423 203.765 143.635 203.765C143.85 203.765 144.017 203.828 144.138 203.955C144.261 204.079 144.323 204.232 144.323 204.414C144.323 204.596 144.261 204.749 144.138 204.873C144.017 204.997 143.85 205.059 143.635 205.059C143.423 205.059 143.256 204.997 143.132 204.873C143.008 204.749 142.946 204.596 142.946 204.414ZM150.246 200.85V202.012C150.246 202.568 150.191 203.044 150.08 203.438C149.973 203.828 149.816 204.146 149.611 204.39C149.406 204.634 149.16 204.813 148.874 204.927C148.591 205.041 148.273 205.098 147.922 205.098C147.642 205.098 147.382 205.062 147.141 204.99C146.903 204.919 146.688 204.806 146.496 204.653C146.304 204.5 146.14 204.303 146.003 204.062C145.869 203.818 145.765 203.527 145.69 203.188C145.619 202.85 145.583 202.458 145.583 202.012V200.85C145.583 200.29 145.638 199.818 145.749 199.434C145.86 199.046 146.018 198.732 146.223 198.491C146.428 198.247 146.672 198.07 146.955 197.959C147.242 197.848 147.561 197.793 147.912 197.793C148.195 197.793 148.456 197.829 148.693 197.9C148.934 197.969 149.149 198.078 149.338 198.228C149.53 198.377 149.693 198.573 149.826 198.813C149.963 199.051 150.067 199.339 150.139 199.678C150.21 200.013 150.246 200.404 150.246 200.85ZM149.069 202.178V200.674C149.069 200.391 149.053 200.142 149.021 199.927C148.988 199.709 148.939 199.525 148.874 199.375C148.812 199.222 148.734 199.098 148.64 199.004C148.545 198.906 148.438 198.836 148.317 198.794C148.197 198.748 148.062 198.726 147.912 198.726C147.73 198.726 147.567 198.761 147.424 198.833C147.281 198.901 147.16 199.012 147.062 199.165C146.965 199.318 146.89 199.52 146.838 199.771C146.789 200.018 146.765 200.319 146.765 200.674V202.178C146.765 202.464 146.781 202.716 146.813 202.935C146.846 203.153 146.895 203.34 146.96 203.496C147.025 203.649 147.103 203.776 147.194 203.877C147.289 203.975 147.396 204.046 147.517 204.092C147.64 204.137 147.775 204.16 147.922 204.16C148.107 204.16 148.272 204.124 148.415 204.053C148.558 203.981 148.679 203.867 148.776 203.711C148.874 203.551 148.947 203.345 148.996 203.091C149.045 202.837 149.069 202.533 149.069 202.178ZM156.062 204.062V205H151.296V204.194L153.61 201.67C153.864 201.383 154.064 201.136 154.211 200.928C154.357 200.719 154.46 200.532 154.519 200.366C154.58 200.197 154.611 200.033 154.611 199.873C154.611 199.648 154.569 199.451 154.484 199.282C154.403 199.11 154.283 198.975 154.123 198.877C153.964 198.776 153.77 198.726 153.542 198.726C153.278 198.726 153.057 198.783 152.878 198.896C152.699 199.01 152.564 199.168 152.473 199.37C152.382 199.569 152.336 199.797 152.336 200.054H151.159C151.159 199.64 151.254 199.263 151.442 198.921C151.631 198.576 151.905 198.302 152.263 198.101C152.621 197.896 153.052 197.793 153.557 197.793C154.032 197.793 154.436 197.873 154.768 198.032C155.1 198.192 155.352 198.418 155.524 198.711C155.7 199.004 155.788 199.351 155.788 199.751C155.788 199.972 155.752 200.192 155.681 200.41C155.609 200.628 155.507 200.846 155.373 201.064C155.243 201.279 155.088 201.496 154.909 201.714C154.73 201.929 154.533 202.147 154.318 202.368L152.78 204.062H156.062Z" fill="#3D55A5"/>
<path d="M215 187V192" stroke="#3D55A5"/>
<path d="M201.86 204.062V205H197.095V204.194L199.409 201.67C199.663 201.383 199.863 201.136 200.01 200.928C200.156 200.719 200.259 200.532 200.317 200.366C200.379 200.197 200.41 200.033 200.41 199.873C200.41 199.648 200.368 199.451 200.283 199.282C200.202 199.11 200.081 198.975 199.922 198.877C199.762 198.776 199.569 198.726 199.341 198.726C199.077 198.726 198.856 198.783 198.677 198.896C198.498 199.01 198.363 199.168 198.271 199.37C198.18 199.569 198.135 199.797 198.135 200.054H196.958C196.958 199.64 197.052 199.263 197.241 198.921C197.43 198.576 197.703 198.302 198.062 198.101C198.42 197.896 198.851 197.793 199.355 197.793C199.831 197.793 200.234 197.873 200.566 198.032C200.898 198.192 201.151 198.418 201.323 198.711C201.499 199.004 201.587 199.351 201.587 199.751C201.587 199.972 201.551 200.192 201.479 200.41C201.408 200.628 201.305 200.846 201.172 201.064C201.042 201.279 200.887 201.496 200.708 201.714C200.529 201.929 200.332 202.147 200.117 202.368L198.579 204.062H201.86ZM207.412 200.85V202.012C207.412 202.568 207.357 203.044 207.246 203.438C207.139 203.828 206.982 204.146 206.777 204.39C206.572 204.634 206.326 204.813 206.04 204.927C205.757 205.041 205.439 205.098 205.088 205.098C204.808 205.098 204.548 205.062 204.307 204.99C204.069 204.919 203.854 204.806 203.662 204.653C203.47 204.5 203.306 204.303 203.169 204.062C203.035 203.818 202.931 203.527 202.856 203.188C202.785 202.85 202.749 202.458 202.749 202.012V200.85C202.749 200.29 202.804 199.818 202.915 199.434C203.026 199.046 203.184 198.732 203.389 198.491C203.594 198.247 203.838 198.07 204.121 197.959C204.408 197.848 204.727 197.793 205.078 197.793C205.361 197.793 205.622 197.829 205.859 197.9C206.1 197.969 206.315 198.078 206.504 198.228C206.696 198.377 206.859 198.573 206.992 198.813C207.129 199.051 207.233 199.339 207.305 199.678C207.376 200.013 207.412 200.404 207.412 200.85ZM206.235 202.178V200.674C206.235 200.391 206.219 200.142 206.187 199.927C206.154 199.709 206.105 199.525 206.04 199.375C205.978 199.222 205.9 199.098 205.806 199.004C205.711 198.906 205.604 198.836 205.483 198.794C205.363 198.748 205.228 198.726 205.078 198.726C204.896 198.726 204.733 198.761 204.59 198.833C204.447 198.901 204.326 199.012 204.229 199.165C204.131 199.318 204.056 199.52 204.004 199.771C203.955 200.018 203.931 200.319 203.931 200.674V202.178C203.931 202.464 203.947 202.716 203.979 202.935C204.012 203.153 204.061 203.34 204.126 203.496C204.191 203.649 204.269 203.776 204.36 203.877C204.455 203.975 204.562 204.046 204.683 204.092C204.806 204.137 204.941 204.16 205.088 204.16C205.273 204.16 205.438 204.124 205.581 204.053C205.724 203.981 205.845 203.867 205.942 203.711C206.04 203.551 206.113 203.345 206.162 203.091C206.211 202.837 206.235 202.533 206.235 202.178ZM213.228 204.062V205H208.462V204.194L210.776 201.67C211.03 201.383 211.23 201.136 211.377 200.928C211.523 200.719 211.626 200.532 211.685 200.366C211.746 200.197 211.777 200.033 211.777 199.873C211.777 199.648 211.735 199.451 211.65 199.282C211.569 199.11 211.449 198.975 211.289 198.877C211.13 198.776 210.936 198.726 210.708 198.726C210.444 198.726 210.223 198.783 210.044 198.896C209.865 199.01 209.73 199.168 209.639 199.37C209.548 199.569 209.502 199.797 209.502 200.054H208.325C208.325 199.64 208.42 199.263 208.608 198.921C208.797 198.576 209.071 198.302 209.429 198.101C209.787 197.896 210.218 197.793 210.723 197.793C211.198 197.793 211.602 197.873 211.934 198.032C212.266 198.192 212.518 198.418 212.69 198.711C212.866 199.004 212.954 199.351 212.954 199.751C212.954 199.972 212.918 200.192 212.847 200.41C212.775 200.628 212.673 200.846 212.539 201.064C212.409 201.279 212.254 201.496 212.075 201.714C211.896 201.929 211.699 202.147 211.484 202.368L209.946 204.062H213.228ZM218.911 204.062V205H214.146V204.194L216.46 201.67C216.714 201.383 216.914 201.136 217.061 200.928C217.207 200.719 217.31 200.532 217.368 200.366C217.43 200.197 217.461 200.033 217.461 199.873C217.461 199.648 217.419 199.451 217.334 199.282C217.253 199.11 217.132 198.975 216.973 198.877C216.813 198.776 216.619 198.726 216.392 198.726C216.128 198.726 215.907 198.783 215.728 198.896C215.549 199.01 215.413 199.168 215.322 199.37C215.231 199.569 215.186 199.797 215.186 200.054H214.009C214.009 199.64 214.103 199.263 214.292 198.921C214.481 198.576 214.754 198.302 215.112 198.101C215.47 197.896 215.902 197.793 216.406 197.793C216.882 197.793 217.285 197.873 217.617 198.032C217.949 198.192 218.201 198.418 218.374 198.711C218.55 199.004 218.638 199.351 218.638 199.751C218.638 199.972 218.602 200.192 218.53 200.41C218.459 200.628 218.356 200.846 218.223 201.064C218.092 201.279 217.938 201.496 217.759 201.714C217.58 201.929 217.383 202.147 217.168 202.368L215.63 204.062H218.911ZM219.946 204.414C219.946 204.232 220.008 204.079 220.132 203.955C220.256 203.828 220.423 203.765 220.635 203.765C220.85 203.765 221.017 203.828 221.138 203.955C221.261 204.079 221.323 204.232 221.323 204.414C221.323 204.596 221.261 204.749 221.138 204.873C221.017 204.997 220.85 205.059 220.635 205.059C220.423 205.059 220.256 204.997 220.132 204.873C220.008 204.749 219.946 204.596 219.946 204.414ZM227.246 200.85V202.012C227.246 202.568 227.191 203.044 227.08 203.438C226.973 203.828 226.816 204.146 226.611 204.39C226.406 204.634 226.16 204.813 225.874 204.927C225.591 205.041 225.273 205.098 224.922 205.098C224.642 205.098 224.382 205.062 224.141 204.99C223.903 204.919 223.688 204.806 223.496 204.653C223.304 204.5 223.14 204.303 223.003 204.062C222.869 203.818 222.765 203.527 222.69 203.188C222.619 202.85 222.583 202.458 222.583 202.012V200.85C222.583 200.29 222.638 199.818 222.749 199.434C222.86 199.046 223.018 198.732 223.223 198.491C223.428 198.247 223.672 198.07 223.955 197.959C224.242 197.848 224.561 197.793 224.912 197.793C225.195 197.793 225.456 197.829 225.693 197.9C225.934 197.969 226.149 198.078 226.338 198.228C226.53 198.377 226.693 198.573 226.826 198.813C226.963 199.051 227.067 199.339 227.139 199.678C227.21 200.013 227.246 200.404 227.246 200.85ZM226.069 202.178V200.674C226.069 200.391 226.053 200.142 226.021 199.927C225.988 199.709 225.939 199.525 225.874 199.375C225.812 199.222 225.734 199.098 225.64 199.004C225.545 198.906 225.438 198.836 225.317 198.794C225.197 198.748 225.062 198.726 224.912 198.726C224.73 198.726 224.567 198.761 224.424 198.833C224.281 198.901 224.16 199.012 224.062 199.165C223.965 199.318 223.89 199.52 223.838 199.771C223.789 200.018 223.765 200.319 223.765 200.674V202.178C223.765 202.464 223.781 202.716 223.813 202.935C223.846 203.153 223.895 203.34 223.96 203.496C224.025 203.649 224.103 203.776 224.194 203.877C224.289 203.975 224.396 204.046 224.517 204.092C224.64 204.137 224.775 204.16 224.922 204.16C225.107 204.16 225.272 204.124 225.415 204.053C225.558 203.981 225.679 203.867 225.776 203.711C225.874 203.551 225.947 203.345 225.996 203.091C226.045 202.837 226.069 202.533 226.069 202.178ZM229.678 200.913H230.381C230.654 200.913 230.881 200.866 231.06 200.771C231.242 200.677 231.377 200.547 231.465 200.381C231.553 200.215 231.597 200.024 231.597 199.81C231.597 199.585 231.556 199.393 231.475 199.233C231.396 199.071 231.276 198.945 231.113 198.857C230.954 198.77 230.75 198.726 230.503 198.726C230.295 198.726 230.106 198.768 229.937 198.853C229.771 198.934 229.639 199.051 229.541 199.204C229.443 199.354 229.395 199.533 229.395 199.741H228.213C228.213 199.364 228.312 199.028 228.511 198.735C228.709 198.442 228.979 198.213 229.321 198.047C229.666 197.878 230.054 197.793 230.483 197.793C230.942 197.793 231.343 197.869 231.685 198.022C232.03 198.172 232.298 198.397 232.49 198.696C232.682 198.996 232.778 199.367 232.778 199.81C232.778 200.011 232.731 200.216 232.637 200.425C232.542 200.633 232.402 200.824 232.217 200.996C232.031 201.165 231.8 201.304 231.523 201.411C231.247 201.515 230.926 201.567 230.562 201.567H229.678V200.913ZM229.678 201.831V201.187H230.562C230.978 201.187 231.333 201.235 231.626 201.333C231.922 201.431 232.163 201.566 232.349 201.738C232.534 201.908 232.669 202.101 232.754 202.319C232.842 202.537 232.886 202.769 232.886 203.013C232.886 203.345 232.826 203.641 232.705 203.901C232.588 204.159 232.42 204.377 232.202 204.556C231.984 204.735 231.729 204.87 231.436 204.961C231.146 205.052 230.83 205.098 230.488 205.098C230.182 205.098 229.889 205.055 229.609 204.971C229.329 204.886 229.079 204.761 228.857 204.595C228.636 204.425 228.46 204.215 228.33 203.965C228.203 203.711 228.14 203.418 228.14 203.086H229.316C229.316 203.298 229.365 203.485 229.463 203.647C229.564 203.807 229.704 203.932 229.883 204.023C230.065 204.115 230.273 204.16 230.508 204.16C230.755 204.16 230.968 204.116 231.147 204.028C231.326 203.94 231.463 203.81 231.558 203.638C231.655 203.465 231.704 203.257 231.704 203.013C231.704 202.736 231.65 202.511 231.543 202.339C231.436 202.166 231.283 202.039 231.084 201.958C230.885 201.873 230.651 201.831 230.381 201.831H229.678Z" fill="#3D55A5"/>
<g clip-path="url(#clip1_132_661)">
<path d="M24 134.522C38 142.362 52 150.202 66 150.348C80 150.495 94 142.948 108 134.918C122 126.888 136 118.375 150 123.444C164 128.513 178 147.163 192 142.04C206 136.916 220 108.02 234 102.87C248 97.7212 262 116.32 276 134.918V182C262 182 248 182 234 182C220 182 206 182 192 182C178 182 164 182 150 182C136 182 122 182 108 182C94 182 80 182 66 182C52 182 38 182 24 182V134.522Z" fill="url(#paint0_linear_132_661)" fill-opacity="0.2"/>
<path d="M24 134.522C38 142.362 52 150.202 66 150.348C80 150.495 94 142.948 108 134.918C122 126.888 136 118.375 150 123.444C164 128.513 178 147.163 192 142.04C206 136.916 220 108.02 234 102.87C248 97.7212 262 116.32 276 134.918" stroke="#3D55A5" stroke-width="2" stroke-linecap="round"/>
<path d="M24 164.641C38 152.547 52 140.452 66 142.322C80 144.191 94 160.023 108 158.131C122 156.239 136 136.621 150 135.502C164 134.383 178 151.761 192 148.211C206 144.662 220 120.184 234 113.803C248 107.422 262 119.137 276 130.852V182C262 182 248 182 234 182C220 182 206 182 192 182C178 182 164 182 150 182C136 182 122 182 108 182C94 182 80 182 66 182C52 182 38 182 24 182V164.641Z" fill="url(#paint1_linear_132_661)" fill-opacity="0.2"/>
<path d="M24 164.641C38 152.547 52 140.452 66 142.322C80 144.191 94 160.023 108 158.131C122 156.239 136 136.621 150 135.502C164 134.383 178 151.761 192 148.211C206 144.662 220 120.184 234 113.803C248 107.422 262 119.137 276 130.852" stroke="#CF5898" stroke-width="2" stroke-linecap="round"/>
</g>
</g>
<rect x="106" y="2.5" width="11" height="7" rx="3.5" fill="#3D55A5"/>
<path d="M125.675 10.1C124.968 10.1 124.328 9.94667 123.755 9.64C123.188 9.32667 122.742 8.89667 122.415 8.35C122.095 7.80333 121.935 7.18667 121.935 6.5C121.935 5.81333 122.098 5.19667 122.425 4.65C122.752 4.10333 123.198 3.67667 123.765 3.37C124.338 3.05667 124.978 2.9 125.685 2.9C126.258 2.9 126.782 3 127.255 3.2C127.728 3.4 128.128 3.69 128.455 4.07L127.615 4.86C127.108 4.31333 126.485 4.04 125.745 4.04C125.265 4.04 124.835 4.14667 124.455 4.36C124.075 4.56667 123.778 4.85667 123.565 5.23C123.352 5.60333 123.245 6.02667 123.245 6.5C123.245 6.97333 123.352 7.39667 123.565 7.77C123.778 8.14333 124.075 8.43667 124.455 8.65C124.835 8.85667 125.265 8.96 125.745 8.96C126.485 8.96 127.108 8.68333 127.615 8.13L128.455 8.93C128.128 9.31 127.725 9.6 127.245 9.8C126.772 10 126.248 10.1 125.675 10.1ZM132.824 10.1C132.111 10.1 131.468 9.94667 130.894 9.64C130.321 9.32667 129.871 8.89667 129.544 8.35C129.218 7.79667 129.054 7.18 129.054 6.5C129.054 5.82 129.218 5.20667 129.544 4.66C129.871 4.10667 130.321 3.67667 130.894 3.37C131.468 3.05667 132.111 2.9 132.824 2.9C133.538 2.9 134.181 3.05667 134.754 3.37C135.328 3.67667 135.778 4.10333 136.104 4.65C136.431 5.19667 136.594 5.81333 136.594 6.5C136.594 7.18667 136.431 7.80333 136.104 8.35C135.778 8.89667 135.328 9.32667 134.754 9.64C134.181 9.94667 133.538 10.1 132.824 10.1ZM132.824 8.96C133.291 8.96 133.711 8.85667 134.084 8.65C134.458 8.43667 134.751 8.14333 134.964 7.77C135.178 7.39 135.284 6.96667 135.284 6.5C135.284 6.03333 135.178 5.61333 134.964 5.24C134.751 4.86 134.458 4.56667 134.084 4.36C133.711 4.14667 133.291 4.04 132.824 4.04C132.358 4.04 131.938 4.14667 131.564 4.36C131.191 4.56667 130.898 4.86 130.684 5.24C130.471 5.61333 130.364 6.03333 130.364 6.5C130.364 6.96667 130.471 7.39 130.684 7.77C130.898 8.14333 131.191 8.43667 131.564 8.65C131.938 8.85667 132.358 8.96 132.824 8.96ZM142.445 8.9V10H137.285V9.13L140.065 6.49C140.378 6.19 140.588 5.93 140.695 5.71C140.808 5.48333 140.865 5.26 140.865 5.04C140.865 4.71333 140.755 4.46333 140.535 4.29C140.315 4.11667 139.991 4.03 139.565 4.03C138.851 4.03 138.305 4.27333 137.925 4.76L137.015 4.06C137.288 3.69333 137.655 3.41 138.115 3.21C138.581 3.00333 139.101 2.9 139.675 2.9C140.435 2.9 141.041 3.08 141.495 3.44C141.948 3.8 142.175 4.29 142.175 4.91C142.175 5.29 142.095 5.64667 141.935 5.98C141.775 6.31333 141.468 6.69333 141.015 7.12L139.145 8.9H142.445ZM148.629 10.1C148.089 10.1 147.565 10.0233 147.059 9.87C146.559 9.71667 146.162 9.51333 145.869 9.26L146.319 8.25C146.605 8.47667 146.955 8.66333 147.369 8.81C147.789 8.95 148.209 9.02 148.629 9.02C149.149 9.02 149.535 8.93667 149.789 8.77C150.049 8.60333 150.179 8.38333 150.179 8.11C150.179 7.91 150.105 7.74667 149.959 7.62C149.819 7.48667 149.639 7.38333 149.419 7.31C149.199 7.23667 148.899 7.15333 148.519 7.06C147.985 6.93333 147.552 6.80667 147.219 6.68C146.892 6.55333 146.609 6.35667 146.369 6.09C146.135 5.81667 146.019 5.45 146.019 4.99C146.019 4.60333 146.122 4.25333 146.329 3.94C146.542 3.62 146.859 3.36667 147.279 3.18C147.705 2.99333 148.225 2.9 148.839 2.9C149.265 2.9 149.685 2.95333 150.099 3.06C150.512 3.16667 150.869 3.32 151.169 3.52L150.759 4.53C150.452 4.35 150.132 4.21333 149.799 4.12C149.465 4.02667 149.142 3.98 148.829 3.98C148.315 3.98 147.932 4.06667 147.679 4.24C147.432 4.41333 147.309 4.64333 147.309 4.93C147.309 5.13 147.379 5.29333 147.519 5.42C147.665 5.54667 147.849 5.64667 148.069 5.72C148.289 5.79333 148.589 5.87667 148.969 5.97C149.489 6.09 149.915 6.21667 150.249 6.35C150.582 6.47667 150.865 6.67333 151.099 6.94C151.339 7.20667 151.459 7.56667 151.459 8.02C151.459 8.40667 151.352 8.75667 151.139 9.07C150.932 9.38333 150.615 9.63333 150.189 9.82C149.762 10.0067 149.242 10.1 148.629 10.1ZM154.668 4.6C155.454 4.6 156.054 4.79 156.468 5.17C156.888 5.54333 157.098 6.11 157.098 6.87V10H155.918V9.35C155.764 9.58333 155.544 9.76333 155.258 9.89C154.978 10.01 154.638 10.07 154.238 10.07C153.838 10.07 153.488 10.0033 153.188 9.87C152.888 9.73 152.654 9.54 152.488 9.3C152.328 9.05333 152.248 8.77667 152.248 8.47C152.248 7.99 152.424 7.60667 152.778 7.32C153.138 7.02667 153.701 6.88 154.468 6.88H155.848V6.8C155.848 6.42667 155.734 6.14 155.508 5.94C155.288 5.74 154.958 5.64 154.518 5.64C154.218 5.64 153.921 5.68667 153.628 5.78C153.341 5.87333 153.098 6.00333 152.898 6.17L152.408 5.26C152.688 5.04667 153.024 4.88333 153.418 4.77C153.811 4.65667 154.228 4.6 154.668 4.6ZM154.498 9.16C154.811 9.16 155.088 9.09 155.328 8.95C155.574 8.80333 155.748 8.59667 155.848 8.33V7.71H154.558C153.838 7.71 153.478 7.94667 153.478 8.42C153.478 8.64667 153.568 8.82667 153.748 8.96C153.928 9.09333 154.178 9.16 154.498 9.16ZM163.604 4.66L161.314 10H160.024L157.734 4.66H159.034L160.694 8.62L162.404 4.66H163.604ZM169.259 7.36C169.259 7.44667 169.252 7.57 169.239 7.73H165.049C165.122 8.12333 165.312 8.43667 165.619 8.67C165.932 8.89667 166.319 9.01 166.779 9.01C167.366 9.01 167.849 8.81667 168.229 8.43L168.899 9.2C168.659 9.48667 168.356 9.70333 167.989 9.85C167.622 9.99667 167.209 10.07 166.749 10.07C166.162 10.07 165.646 9.95333 165.199 9.72C164.752 9.48667 164.406 9.16333 164.159 8.75C163.919 8.33 163.799 7.85667 163.799 7.33C163.799 6.81 163.916 6.34333 164.149 5.93C164.389 5.51 164.719 5.18333 165.139 4.95C165.559 4.71667 166.032 4.6 166.559 4.6C167.079 4.6 167.542 4.71667 167.949 4.95C168.362 5.17667 168.682 5.5 168.909 5.92C169.142 6.33333 169.259 6.81333 169.259 7.36ZM166.559 5.6C166.159 5.6 165.819 5.72 165.539 5.96C165.266 6.19333 165.099 6.50667 165.039 6.9H168.069C168.016 6.51333 167.852 6.2 167.579 5.96C167.306 5.72 166.966 5.6 166.559 5.6ZM175.69 2.58V10H174.49V9.31C174.283 9.56333 174.026 9.75333 173.72 9.88C173.42 10.0067 173.086 10.07 172.72 10.07C172.206 10.07 171.743 9.95667 171.33 9.73C170.923 9.50333 170.603 9.18333 170.37 8.77C170.136 8.35 170.02 7.87 170.02 7.33C170.02 6.79 170.136 6.31333 170.37 5.9C170.603 5.48667 170.923 5.16667 171.33 4.94C171.743 4.71333 172.206 4.6 172.72 4.6C173.073 4.6 173.396 4.66 173.69 4.78C173.983 4.9 174.233 5.08 174.44 5.32V2.58H175.69ZM172.87 9C173.17 9 173.44 8.93333 173.68 8.8C173.92 8.66 174.11 8.46333 174.25 8.21C174.39 7.95667 174.46 7.66333 174.46 7.33C174.46 6.99667 174.39 6.70333 174.25 6.45C174.11 6.19667 173.92 6.00333 173.68 5.87C173.44 5.73 173.17 5.66 172.87 5.66C172.57 5.66 172.3 5.73 172.06 5.87C171.82 6.00333 171.63 6.19667 171.49 6.45C171.35 6.70333 171.28 6.99667 171.28 7.33C171.28 7.66333 171.35 7.95667 171.49 8.21C171.63 8.46333 171.82 8.66 172.06 8.8C172.3 8.93333 172.57 9 172.87 9Z" fill="#3D55A5"/>
<rect x="185" y="2.5" width="11" height="7" rx="3.5" fill="#CF5898"/>
<path d="M204.216 10.1C205.366 10.1 206.346 9.69 206.996 8.93L206.156 8.13C205.646 8.69 205.016 8.96 204.286 8.96C202.836 8.96 201.786 7.94 201.786 6.5C201.786 5.06 202.836 4.04 204.286 4.04C205.016 4.04 205.646 4.31 206.156 4.86L206.996 4.07C206.346 3.31 205.366 2.9 204.226 2.9C202.076 2.9 200.476 4.41 200.476 6.5C200.476 8.59 202.076 10.1 204.216 10.1ZM211.365 10.1C213.535 10.1 215.135 8.58 215.135 6.5C215.135 4.42 213.535 2.9 211.365 2.9C209.195 2.9 207.595 4.43 207.595 6.5C207.595 8.57 209.195 10.1 211.365 10.1ZM211.365 8.96C209.955 8.96 208.905 7.93 208.905 6.5C208.905 5.07 209.955 4.04 211.365 4.04C212.775 4.04 213.825 5.07 213.825 6.5C213.825 7.93 212.775 8.96 211.365 8.96ZM217.686 8.9L219.556 7.12C220.526 6.21 220.716 5.59 220.716 4.91C220.716 3.67 219.736 2.9 218.216 2.9C217.066 2.9 216.096 3.33 215.556 4.06L216.466 4.76C216.856 4.26 217.426 4.03 218.106 4.03C218.966 4.03 219.406 4.4 219.406 5.04C219.406 5.43 219.286 5.84 218.606 6.49L215.826 9.13V10H220.986V8.9H217.686ZM226.3 8.91V6.98H229.68V5.91H226.3V4.09H230.11V3H225V10H230.25V8.91H226.3ZM238.319 4.6C237.469 4.6 236.749 4.94 236.319 5.49C235.949 4.89 235.299 4.6 234.519 4.6C233.789 4.6 233.169 4.86 232.769 5.34V4.66H231.579V10H232.829V7.29C232.829 6.23 233.389 5.69 234.219 5.69C234.979 5.69 235.419 6.15 235.419 7.1V10H236.669V7.29C236.669 6.23 237.239 5.69 238.059 5.69C238.819 5.69 239.259 6.15 239.259 7.1V10H240.509V6.94C240.509 5.33 239.609 4.6 238.319 4.6ZM248.846 4.6C247.996 4.6 247.276 4.94 246.846 5.49C246.476 4.89 245.826 4.6 245.046 4.6C244.316 4.6 243.696 4.86 243.296 5.34V4.66H242.106V10H243.356V7.29C243.356 6.23 243.916 5.69 244.746 5.69C245.506 5.69 245.946 6.15 245.946 7.1V10H247.196V7.29C247.196 6.23 247.766 5.69 248.586 5.69C249.346 5.69 249.786 6.15 249.786 7.1V10H251.036V6.94C251.036 5.33 250.136 4.6 248.846 4.6ZM253.263 3.78C253.733 3.78 254.063 3.44 254.063 3C254.063 2.59 253.723 2.28 253.263 2.28C252.803 2.28 252.463 2.61 252.463 3.03C252.463 3.45 252.803 3.78 253.263 3.78ZM252.633 10H253.883V4.66H252.633V10ZM258.384 8.82C258.194 8.97 257.944 9.04 257.684 9.04C257.204 9.04 256.944 8.76 256.944 8.24V5.7H258.374V4.7H256.944V3.48H255.694V4.7H254.814V5.7H255.694V8.27C255.694 9.45 256.364 10.07 257.534 10.07C257.984 10.07 258.434 9.95 258.734 9.71L258.384 8.82ZM262.495 8.82C262.305 8.97 262.055 9.04 261.795 9.04C261.315 9.04 261.055 8.76 261.055 8.24V5.7H262.485V4.7H261.055V3.48H259.805V4.7H258.925V5.7H259.805V8.27C259.805 9.45 260.475 10.07 261.645 10.07C262.095 10.07 262.545 9.95 262.845 9.71L262.495 8.82ZM268.718 7.36C268.718 5.69 267.578 4.6 266.018 4.6C264.428 4.6 263.258 5.74 263.258 7.33C263.258 8.92 264.418 10.07 266.208 10.07C267.128 10.07 267.878 9.77 268.358 9.2L267.688 8.43C267.308 8.82 266.838 9.01 266.238 9.01C265.308 9.01 264.658 8.51 264.508 7.73H268.698C268.708 7.61 268.718 7.46 268.718 7.36ZM266.018 5.6C266.838 5.6 267.428 6.13 267.528 6.9H264.498C264.618 6.12 265.208 5.6 266.018 5.6ZM273.899 2.58V5.32C273.479 4.83 272.869 4.6 272.179 4.6C270.629 4.6 269.479 5.67 269.479 7.33C269.479 8.99 270.629 10.07 272.179 10.07C272.909 10.07 273.529 9.82 273.949 9.31V10H275.149V2.58H273.899ZM272.329 9C271.429 9 270.739 8.35 270.739 7.33C270.739 6.31 271.429 5.66 272.329 5.66C273.229 5.66 273.919 6.31 273.919 7.33C273.919 8.35 273.229 9 272.329 9Z" fill="#CF5898"/>
<defs>
<linearGradient id="paint0_linear_132_661" x1="150" y1="129.5" x2="150" y2="169" gradientUnits="userSpaceOnUse">
<stop stop-color="#3D55A5"/>
<stop offset="1" stop-color="white" stop-opacity="0.4"/>
</linearGradient>
<linearGradient id="paint1_linear_132_661" x1="150" y1="157.063" x2="150" y2="203.875" gradientUnits="userSpaceOnUse">
<stop stop-color="#CF5898"/>
<stop offset="1" stop-color="white" stop-opacity="0.4"/>
</linearGradient>
<clipPath id="clip0_132_661">
<rect width="272" height="168" fill="white" transform="translate(0 40)"/>
</clipPath>
<clipPath id="clip1_132_661">
<rect width="248" height="84" fill="white" transform="translate(24 98)"/>
</clipPath>
</defs>
</svg>
