<svg width="32" height="32" viewBox="0 0 32 32" fill="none" xmlns="http://www.w3.org/2000/svg">
<rect width="32" height="32" fill="#FDF8F2"/>
<path fill-rule="evenodd" clip-rule="evenodd" d="M26.7108 27.3384V8.07622L26.7273 8.07071C26.7273 6.37272 25.3492 5 23.6568 5C22.5212 5 21.4573 5.65053 20.9336 6.65388C20.7128 7.07341 20.6512 7.50355 20.5872 7.94997C20.5714 8.06085 20.5553 8.17274 20.5367 8.28571C20.4509 8.79664 20.3444 9.30525 20.238 9.81305L20.2379 9.81311C20.1802 10.0888 20.1224 10.3643 20.0681 10.6397L20.0681 10.6398C20.035 10.8051 20.002 10.9705 19.9193 11.1139C19.7188 11.4739 19.2885 11.4534 18.9118 11.4355C18.8328 11.4317 18.7561 11.4281 18.6845 11.4281H17.1409H15.2777C15.0681 11.4281 14.8477 11.4402 14.6248 11.4524H14.6248C14.2088 11.4752 13.7839 11.4985 13.4034 11.4446C13.1553 11.406 12.9073 11.2903 12.7805 11.0753C12.7048 10.9509 12.6768 10.8054 12.6498 10.6646L12.6482 10.6563L12.2072 8.31879C12.1844 8.19837 12.1642 8.07751 12.144 7.9569C12.0616 7.46465 11.98 6.97648 11.7276 6.53811C11.1818 5.5954 10.1455 5.00551 9.07051 5.00551C7.37263 5.00551 6 6.37824 6 8.07622V27.3384C6 27.7023 6.29768 28 6.66151 28H11.474C11.8378 28 12.1355 27.7023 12.1355 27.3384L12.6868 20.1992C12.6868 19.8353 12.9844 19.5376 13.3483 19.5376H19.357C19.7208 19.5376 20.0185 19.8353 20.0185 20.1992L20.5698 27.3384C20.5698 27.7023 20.8674 28 21.2313 28H26.0493C26.4131 28 26.7108 27.7023 26.7108 27.3384ZM11.1763 8.58893C11.1763 9.65458 10.3125 10.5185 9.24692 10.5185C8.18134 10.5185 7.31752 9.65458 7.31752 8.58893C7.31752 7.52328 8.18134 6.6594 9.24692 6.6594C10.3125 6.6594 11.1763 7.52328 11.1763 8.58893ZM23.5796 10.5185C24.6452 10.5185 25.509 9.65458 25.509 8.58893C25.509 7.52328 24.6452 6.6594 23.5796 6.6594C22.514 6.6594 21.6502 7.52328 21.6502 8.58893C21.6502 9.65458 22.514 10.5185 23.5796 10.5185ZM13.5294 15.9904C15.2113 16.6736 17.4961 16.6736 19.1779 15.9904H19.1814C19.5239 15.8355 19.774 15.5104 19.7808 15.3149C19.7877 15.1194 19.476 14.9433 19.0957 14.9278H13.615C13.2348 14.9433 12.9231 15.1194 12.9299 15.3149C12.9368 15.5104 13.1869 15.8336 13.5294 15.9904Z" fill="#3D55A5"/>
</svg>
