<svg width="170" height="12" viewBox="0 0 170 12" fill="none" xmlns="http://www.w3.org/2000/svg">
<rect y="2.5" width="11" height="7" rx="3.5" fill="#3D55A5"/>
<path d="M19.6751 10.1C18.9685 10.1 18.3285 9.94667 17.7551 9.64C17.1885 9.32667 16.7418 8.89667 16.4151 8.35C16.0951 7.80333 15.9351 7.18667 15.9351 6.5C15.9351 5.81333 16.0985 5.19667 16.4251 4.65C16.7518 4.10333 17.1985 3.67667 17.7651 3.37C18.3385 3.05667 18.9785 2.9 19.6851 2.9C20.2585 2.9 20.7818 3 21.2551 3.2C21.7285 3.4 22.1285 3.69 22.4551 4.07L21.6151 4.86C21.1085 4.31333 20.4851 4.04 19.7451 4.04C19.2651 4.04 18.8351 4.14667 18.4551 4.36C18.0751 4.56667 17.7785 4.85667 17.5651 5.23C17.3518 5.60333 17.2451 6.02667 17.2451 6.5C17.2451 6.97333 17.3518 7.39667 17.5651 7.77C17.7785 8.14333 18.0751 8.43667 18.4551 8.65C18.8351 8.85667 19.2651 8.96 19.7451 8.96C20.4851 8.96 21.1085 8.68333 21.6151 8.13L22.4551 8.93C22.1285 9.31 21.7251 9.6 21.2451 9.8C20.7718 10 20.2485 10.1 19.6751 10.1ZM26.8243 10.1C26.1109 10.1 25.4676 9.94667 24.8943 9.64C24.3209 9.32667 23.8709 8.89667 23.5443 8.35C23.2176 7.79667 23.0543 7.18 23.0543 6.5C23.0543 5.82 23.2176 5.20667 23.5443 4.66C23.8709 4.10667 24.3209 3.67667 24.8943 3.37C25.4676 3.05667 26.1109 2.9 26.8243 2.9C27.5376 2.9 28.1809 3.05667 28.7543 3.37C29.3276 3.67667 29.7776 4.10333 30.1043 4.65C30.4309 5.19667 30.5943 5.81333 30.5943 6.5C30.5943 7.18667 30.4309 7.80333 30.1043 8.35C29.7776 8.89667 29.3276 9.32667 28.7543 9.64C28.1809 9.94667 27.5376 10.1 26.8243 10.1ZM26.8243 8.96C27.2909 8.96 27.7109 8.85667 28.0843 8.65C28.4576 8.43667 28.7509 8.14333 28.9643 7.77C29.1776 7.39 29.2843 6.96667 29.2843 6.5C29.2843 6.03333 29.1776 5.61333 28.9643 5.24C28.7509 4.86 28.4576 4.56667 28.0843 4.36C27.7109 4.14667 27.2909 4.04 26.8243 4.04C26.3576 4.04 25.9376 4.14667 25.5643 4.36C25.1909 4.56667 24.8976 4.86 24.6843 5.24C24.4709 5.61333 24.3643 6.03333 24.3643 6.5C24.3643 6.96667 24.4709 7.39 24.6843 7.77C24.8976 8.14333 25.1909 8.43667 25.5643 8.65C25.9376 8.85667 26.3576 8.96 26.8243 8.96ZM36.4446 8.9V10H31.2846V9.13L34.0646 6.49C34.3779 6.19 34.5879 5.93 34.6946 5.71C34.8079 5.48333 34.8646 5.26 34.8646 5.04C34.8646 4.71333 34.7546 4.46333 34.5346 4.29C34.3146 4.11667 33.9912 4.03 33.5646 4.03C32.8512 4.03 32.3046 4.27333 31.9246 4.76L31.0146 4.06C31.2879 3.69333 31.6546 3.41 32.1146 3.21C32.5812 3.00333 33.1012 2.9 33.6746 2.9C34.4346 2.9 35.0412 3.08 35.4946 3.44C35.9479 3.8 36.1746 4.29 36.1746 4.91C36.1746 5.29 36.0946 5.64667 35.9346 5.98C35.7746 6.31333 35.4679 6.69333 35.0146 7.12L33.1446 8.9H36.4446ZM42.6286 10.1C42.0886 10.1 41.5652 10.0233 41.0586 9.87C40.5586 9.71667 40.1619 9.51333 39.8686 9.26L40.3186 8.25C40.6052 8.47667 40.9552 8.66333 41.3686 8.81C41.7886 8.95 42.2086 9.02 42.6286 9.02C43.1486 9.02 43.5352 8.93667 43.7886 8.77C44.0486 8.60333 44.1786 8.38333 44.1786 8.11C44.1786 7.91 44.1052 7.74667 43.9586 7.62C43.8186 7.48667 43.6386 7.38333 43.4186 7.31C43.1986 7.23667 42.8986 7.15333 42.5186 7.06C41.9852 6.93333 41.5519 6.80667 41.2186 6.68C40.8919 6.55333 40.6086 6.35667 40.3686 6.09C40.1352 5.81667 40.0186 5.45 40.0186 4.99C40.0186 4.60333 40.1219 4.25333 40.3286 3.94C40.5419 3.62 40.8586 3.36667 41.2786 3.18C41.7052 2.99333 42.2252 2.9 42.8386 2.9C43.2652 2.9 43.6852 2.95333 44.0986 3.06C44.5119 3.16667 44.8686 3.32 45.1686 3.52L44.7586 4.53C44.4519 4.35 44.1319 4.21333 43.7986 4.12C43.4652 4.02667 43.1419 3.98 42.8286 3.98C42.3152 3.98 41.9319 4.06667 41.6786 4.24C41.4319 4.41333 41.3086 4.64333 41.3086 4.93C41.3086 5.13 41.3786 5.29333 41.5186 5.42C41.6652 5.54667 41.8486 5.64667 42.0686 5.72C42.2886 5.79333 42.5886 5.87667 42.9686 5.97C43.4886 6.09 43.9152 6.21667 44.2486 6.35C44.5819 6.47667 44.8652 6.67333 45.0986 6.94C45.3386 7.20667 45.4586 7.56667 45.4586 8.02C45.4586 8.40667 45.3519 8.75667 45.1386 9.07C44.9319 9.38333 44.6152 9.63333 44.1886 9.82C43.7619 10.0067 43.2419 10.1 42.6286 10.1ZM48.6676 4.6C49.4543 4.6 50.0543 4.79 50.4676 5.17C50.8876 5.54333 51.0976 6.11 51.0976 6.87V10H49.9176V9.35C49.7643 9.58333 49.5443 9.76333 49.2576 9.89C48.9776 10.01 48.6376 10.07 48.2376 10.07C47.8376 10.07 47.4876 10.0033 47.1876 9.87C46.8876 9.73 46.6543 9.54 46.4876 9.3C46.3276 9.05333 46.2476 8.77667 46.2476 8.47C46.2476 7.99 46.4243 7.60667 46.7776 7.32C47.1376 7.02667 47.701 6.88 48.4676 6.88H49.8476V6.8C49.8476 6.42667 49.7343 6.14 49.5076 5.94C49.2876 5.74 48.9576 5.64 48.5176 5.64C48.2176 5.64 47.921 5.68667 47.6276 5.78C47.341 5.87333 47.0976 6.00333 46.8976 6.17L46.4076 5.26C46.6876 5.04667 47.0243 4.88333 47.4176 4.77C47.811 4.65667 48.2276 4.6 48.6676 4.6ZM48.4976 9.16C48.811 9.16 49.0876 9.09 49.3276 8.95C49.5743 8.80333 49.7476 8.59667 49.8476 8.33V7.71H48.5576C47.8376 7.71 47.4776 7.94667 47.4776 8.42C47.4776 8.64667 47.5676 8.82667 47.7476 8.96C47.9276 9.09333 48.1776 9.16 48.4976 9.16ZM57.6042 4.66L55.3142 10H54.0242L51.7342 4.66H53.0342L54.6942 8.62L56.4042 4.66H57.6042ZM63.2589 7.36C63.2589 7.44667 63.2523 7.57 63.2389 7.73H59.0489C59.1223 8.12333 59.3123 8.43667 59.6189 8.67C59.9323 8.89667 60.3189 9.01 60.7789 9.01C61.3656 9.01 61.8489 8.81667 62.2289 8.43L62.8989 9.2C62.6589 9.48667 62.3556 9.70333 61.9889 9.85C61.6223 9.99667 61.2089 10.07 60.7489 10.07C60.1623 10.07 59.6456 9.95333 59.1989 9.72C58.7523 9.48667 58.4056 9.16333 58.1589 8.75C57.9189 8.33 57.7989 7.85667 57.7989 7.33C57.7989 6.81 57.9156 6.34333 58.1489 5.93C58.3889 5.51 58.7189 5.18333 59.1389 4.95C59.5589 4.71667 60.0323 4.6 60.5589 4.6C61.0789 4.6 61.5423 4.71667 61.9489 4.95C62.3623 5.17667 62.6823 5.5 62.9089 5.92C63.1423 6.33333 63.2589 6.81333 63.2589 7.36ZM60.5589 5.6C60.1589 5.6 59.8189 5.72 59.5389 5.96C59.2656 6.19333 59.0989 6.50667 59.0389 6.9H62.0689C62.0156 6.51333 61.8523 6.2 61.5789 5.96C61.3056 5.72 60.9656 5.6 60.5589 5.6ZM69.6896 2.58V10H68.4896V9.31C68.283 9.56333 68.0263 9.75333 67.7196 9.88C67.4196 10.0067 67.0863 10.07 66.7196 10.07C66.2063 10.07 65.743 9.95667 65.3296 9.73C64.923 9.50333 64.603 9.18333 64.3696 8.77C64.1363 8.35 64.0196 7.87 64.0196 7.33C64.0196 6.79 64.1363 6.31333 64.3696 5.9C64.603 5.48667 64.923 5.16667 65.3296 4.94C65.743 4.71333 66.2063 4.6 66.7196 4.6C67.073 4.6 67.3963 4.66 67.6896 4.78C67.983 4.9 68.233 5.08 68.4396 5.32V2.58H69.6896ZM66.8696 9C67.1696 9 67.4396 8.93333 67.6796 8.8C67.9196 8.66 68.1096 8.46333 68.2496 8.21C68.3896 7.95667 68.4596 7.66333 68.4596 7.33C68.4596 6.99667 68.3896 6.70333 68.2496 6.45C68.1096 6.19667 67.9196 6.00333 67.6796 5.87C67.4396 5.73 67.1696 5.66 66.8696 5.66C66.5696 5.66 66.2996 5.73 66.0596 5.87C65.8196 6.00333 65.6296 6.19667 65.4896 6.45C65.3496 6.70333 65.2796 6.99667 65.2796 7.33C65.2796 7.66333 65.3496 7.95667 65.4896 8.21C65.6296 8.46333 65.8196 8.66 66.0596 8.8C66.2996 8.93333 66.5696 9 66.8696 9Z" fill="#3D55A5"/>
<rect x="79" y="2.5" width="11" height="7" rx="3.5" fill="#CF5898"/>
<path d="M98.2161 10.1C99.3661 10.1 100.346 9.69 100.996 8.93L100.156 8.13C99.6461 8.69 99.0161 8.96 98.2861 8.96C96.8361 8.96 95.7861 7.94 95.7861 6.5C95.7861 5.06 96.8361 4.04 98.2861 4.04C99.0161 4.04 99.6461 4.31 100.156 4.86L100.996 4.07C100.346 3.31 99.3661 2.9 98.2261 2.9C96.0761 2.9 94.4761 4.41 94.4761 6.5C94.4761 8.59 96.0761 10.1 98.2161 10.1ZM105.365 10.1C107.535 10.1 109.135 8.58 109.135 6.5C109.135 4.42 107.535 2.9 105.365 2.9C103.195 2.9 101.595 4.43 101.595 6.5C101.595 8.57 103.195 10.1 105.365 10.1ZM105.365 8.96C103.955 8.96 102.905 7.93 102.905 6.5C102.905 5.07 103.955 4.04 105.365 4.04C106.775 4.04 107.825 5.07 107.825 6.5C107.825 7.93 106.775 8.96 105.365 8.96ZM111.686 8.9L113.556 7.12C114.526 6.21 114.716 5.59 114.716 4.91C114.716 3.67 113.736 2.9 112.216 2.9C111.066 2.9 110.096 3.33 109.556 4.06L110.466 4.76C110.856 4.26 111.426 4.03 112.106 4.03C112.966 4.03 113.406 4.4 113.406 5.04C113.406 5.43 113.286 5.84 112.606 6.49L109.826 9.13V10H114.986V8.9H111.686ZM120.3 8.91V6.98H123.68V5.91H120.3V4.09H124.11V3H119V10H124.25V8.91H120.3ZM132.319 4.6C131.469 4.6 130.749 4.94 130.319 5.49C129.949 4.89 129.299 4.6 128.519 4.6C127.789 4.6 127.169 4.86 126.769 5.34V4.66H125.579V10H126.829V7.29C126.829 6.23 127.389 5.69 128.219 5.69C128.979 5.69 129.419 6.15 129.419 7.1V10H130.669V7.29C130.669 6.23 131.239 5.69 132.059 5.69C132.819 5.69 133.259 6.15 133.259 7.1V10H134.509V6.94C134.509 5.33 133.609 4.6 132.319 4.6ZM142.846 4.6C141.996 4.6 141.276 4.94 140.846 5.49C140.476 4.89 139.826 4.6 139.046 4.6C138.316 4.6 137.696 4.86 137.296 5.34V4.66H136.106V10H137.356V7.29C137.356 6.23 137.916 5.69 138.746 5.69C139.506 5.69 139.946 6.15 139.946 7.1V10H141.196V7.29C141.196 6.23 141.766 5.69 142.586 5.69C143.346 5.69 143.786 6.15 143.786 7.1V10H145.036V6.94C145.036 5.33 144.136 4.6 142.846 4.6ZM147.263 3.78C147.733 3.78 148.063 3.44 148.063 3C148.063 2.59 147.723 2.28 147.263 2.28C146.803 2.28 146.463 2.61 146.463 3.03C146.463 3.45 146.803 3.78 147.263 3.78ZM146.633 10H147.883V4.66H146.633V10ZM152.384 8.82C152.194 8.97 151.944 9.04 151.684 9.04C151.204 9.04 150.944 8.76 150.944 8.24V5.7H152.374V4.7H150.944V3.48H149.694V4.7H148.814V5.7H149.694V8.27C149.694 9.45 150.364 10.07 151.534 10.07C151.984 10.07 152.434 9.95 152.734 9.71L152.384 8.82ZM156.495 8.82C156.305 8.97 156.055 9.04 155.795 9.04C155.315 9.04 155.055 8.76 155.055 8.24V5.7H156.485V4.7H155.055V3.48H153.805V4.7H152.925V5.7H153.805V8.27C153.805 9.45 154.475 10.07 155.645 10.07C156.095 10.07 156.545 9.95 156.845 9.71L156.495 8.82ZM162.718 7.36C162.718 5.69 161.578 4.6 160.018 4.6C158.428 4.6 157.258 5.74 157.258 7.33C157.258 8.92 158.418 10.07 160.208 10.07C161.128 10.07 161.878 9.77 162.358 9.2L161.688 8.43C161.308 8.82 160.838 9.01 160.238 9.01C159.308 9.01 158.658 8.51 158.508 7.73H162.698C162.708 7.61 162.718 7.46 162.718 7.36ZM160.018 5.6C160.838 5.6 161.428 6.13 161.528 6.9H158.498C158.618 6.12 159.208 5.6 160.018 5.6ZM167.899 2.58V5.32C167.479 4.83 166.869 4.6 166.179 4.6C164.629 4.6 163.479 5.67 163.479 7.33C163.479 8.99 164.629 10.07 166.179 10.07C166.909 10.07 167.529 9.82 167.949 9.31V10H169.149V2.58H167.899ZM166.329 9C165.429 9 164.739 8.35 164.739 7.33C164.739 6.31 165.429 5.66 166.329 5.66C167.229 5.66 167.919 6.31 167.919 7.33C167.919 8.35 167.229 9 166.329 9Z" fill="#CF5898"/>
</svg>
